<svg width="267" height="281" viewBox="0 0 267 281" fill="none" xmlns="http://www.w3.org/2000/svg">
<path d="M51.547 219.618C96.937 244.571 170.496 244.571 215.875 219.618C261.254 194.666 261.265 154.224 215.875 129.271C170.485 104.318 96.9263 104.324 51.547 129.271C6.16769 154.218 6.17303 194.671 51.547 219.618Z" fill="#F5F5F5"/>
<path d="M38.0849 179.84H39.9966C40.8728 176.761 41.4472 173.595 41.7107 170.393C42.1273 164.464 39.3985 155.387 34.4003 152.347C29.402 149.307 26.6947 153.066 28.3714 156.281C30.0482 159.496 35.7032 168.639 35.778 176.507L38.0849 179.84Z" fill="#FC6A43"/>
<path d="M37.6256 179.84H38.1596C38.6814 175.957 38.6814 172.016 38.1596 168.133C37.2946 160.44 34.8916 156.865 32.6594 154.381C32.6106 154.327 32.5432 154.295 32.4721 154.293C32.401 154.291 32.332 154.319 32.2803 154.37C32.2286 154.422 32.1984 154.492 32.1964 154.567C32.1944 154.642 32.2208 154.715 32.2696 154.769C34.443 157.18 36.7819 160.664 37.6096 168.195C38.1386 172.056 38.144 175.977 37.6256 179.84Z" fill="white"/>
<path d="M38.2397 179.84C37.2572 174.962 32.7929 169.162 28.5797 168.162C23.6936 167.038 21.3173 169.752 22.0168 172.096C22.7164 174.439 26.5772 175.529 30.3259 177.367C31.5881 177.982 32.742 178.818 33.7381 179.84H38.2397Z" fill="#FC6A43"/>
<path d="M36.4615 179.84H37.0329C34.9663 174.372 30.2671 170.471 26.4223 170.112C26.3875 170.108 26.3523 170.111 26.3188 170.122C26.2853 170.133 26.2542 170.15 26.2273 170.174C26.2005 170.198 26.1783 170.227 26.1623 170.259C26.1463 170.292 26.1366 170.328 26.134 170.365C26.1295 170.401 26.1323 170.439 26.1422 170.474C26.152 170.51 26.1688 170.543 26.1913 170.571C26.2139 170.6 26.2417 170.623 26.2732 170.64C26.3047 170.656 26.3391 170.666 26.3743 170.668C30.0055 171.011 34.443 174.675 36.4615 179.84Z" fill="white"/>
<path d="M210.62 128.423L214.62 130.631L214.956 127.995C212.975 122.117 214.604 115.452 216.745 112.675C218.887 109.899 218.475 107.859 217.701 106.949C216.927 106.038 213.99 105.347 211.085 108.921C208.18 112.496 207.512 116.834 207.998 121.212C208.308 123.949 209.675 126.759 210.62 128.423Z" fill="#FC6A43"/>
<path opacity="0.2" d="M210.62 128.423L214.62 130.631L214.956 127.995C212.975 122.117 214.604 115.452 216.745 112.675C218.887 109.899 218.475 107.859 217.701 106.949C216.927 106.038 213.99 105.347 211.085 108.921C208.18 112.496 207.512 116.834 207.998 121.212C208.308 123.949 209.675 126.759 210.62 128.423Z" fill="black"/>
<path d="M212.27 129.333L213.061 129.771C213.053 129.756 213.044 129.741 213.034 129.726C211.902 128.31 210.439 121.375 211.053 117.312C211.811 112.293 214.257 109.017 216.35 107.629C216.376 107.612 216.398 107.59 216.415 107.564C216.433 107.539 216.445 107.509 216.452 107.478C216.458 107.447 216.459 107.415 216.453 107.384C216.448 107.353 216.436 107.323 216.42 107.297C216.386 107.243 216.333 107.206 216.273 107.192C216.214 107.178 216.151 107.19 216.099 107.224C213.963 108.668 211.379 112.057 210.594 117.239C210.028 121.021 211.16 127.012 212.27 129.333Z" fill="white"/>
<path d="M214.7 118.391C215.869 121.409 215.864 122.887 213.958 123.196C212.238 123.466 210.15 125.663 212.089 129.232L223.431 135.493C223.459 134.825 223.616 134.171 223.891 133.569C224.167 132.968 224.555 132.431 225.033 131.991C226.897 130.03 228.616 128.552 228.349 126.371C228.082 124.191 226.283 122.089 225.983 120.189C225.684 118.29 226.603 117.205 228.563 115.075C230.522 112.945 232.301 109.641 229.684 108.134C227.067 106.628 224.072 109.208 222.822 110.944C221.573 112.681 220.43 113.445 217.968 113.299C215.506 113.153 213.531 115.373 214.7 118.391Z" fill="#FC6A43"/>
<path d="M217.909 132.446C217.856 123.185 224.163 112.338 227.671 110.146C227.723 110.112 227.76 110.057 227.775 109.994C227.79 109.932 227.781 109.865 227.751 109.809C227.719 109.755 227.668 109.716 227.61 109.7C227.551 109.685 227.489 109.693 227.436 109.725C223.88 111.973 217.52 122.825 217.45 132.205L217.909 132.446Z" fill="white"/>
<path d="M219.597 122.819C219.549 122.831 219.498 122.825 219.454 122.803C219.409 122.78 219.373 122.743 219.351 122.696C218.332 120.696 217.475 118.609 216.788 116.458C216.779 116.427 216.775 116.396 216.778 116.364C216.781 116.332 216.789 116.301 216.803 116.273C216.817 116.245 216.836 116.22 216.859 116.2C216.882 116.179 216.909 116.164 216.937 116.154C216.966 116.145 216.997 116.141 217.027 116.144C217.057 116.146 217.086 116.155 217.113 116.17C217.139 116.185 217.163 116.205 217.183 116.229C217.202 116.253 217.217 116.281 217.226 116.311C217.907 118.433 218.753 120.491 219.757 122.465C219.786 122.523 219.791 122.59 219.773 122.652C219.755 122.714 219.715 122.766 219.661 122.797L219.597 122.819Z" fill="white"/>
<path d="M218.08 128.496C218.037 128.504 217.991 128.5 217.95 128.483C217.908 128.466 217.872 128.437 217.845 128.4C217.81 128.346 217.797 128.28 217.808 128.216C217.819 128.152 217.853 128.095 217.904 128.057C220.204 126.363 222.994 125.568 225.791 125.809C225.852 125.817 225.907 125.851 225.945 125.902C225.983 125.953 225.999 126.018 225.991 126.082C225.984 126.146 225.952 126.204 225.903 126.244C225.855 126.283 225.793 126.301 225.732 126.293C223.054 126.078 220.386 126.834 218.171 128.434C218.145 128.461 218.114 128.482 218.08 128.496Z" fill="white"/>
<path d="M151.063 71.9191L138.05 64.0117L125.041 71.9191L138.05 79.8264L151.063 71.9191Z" fill="#F5F5F5"/>
<path d="M138.05 95.6467L151.063 87.7394V71.9191L138.05 79.8264V95.6467Z" fill="#EBEBEB"/>
<path d="M140.56 90.3977C140.491 90.399 140.423 90.3816 140.362 90.3471C140.279 90.2833 140.213 90.1981 140.17 90.0997C140.127 90.0014 140.108 89.8931 140.116 89.7851V88.0991V87.9755H140.196L141.446 87.2056V89.077C141.444 89.3181 141.388 89.5551 141.281 89.7683C141.174 89.9815 141.02 90.1646 140.832 90.3022C140.751 90.3596 140.657 90.3926 140.56 90.3977ZM140.319 88.2228V89.7739C140.31 89.8461 140.319 89.9195 140.344 89.9872C140.369 90.055 140.41 90.115 140.463 90.1617C140.507 90.182 140.554 90.1896 140.601 90.1837C140.648 90.1777 140.693 90.1585 140.73 90.128C140.89 90.0105 141.022 89.8553 141.115 89.6748C141.207 89.4943 141.259 89.2934 141.264 89.0883V88.9534H140.8L140.709 88.2958L140.319 88.2228ZM140.96 88.7398H141.248V87.5877L140.501 88.0429L140.869 88.116L140.96 88.7398Z" fill="white"/>
<path d="M140.784 91.7352C140.757 91.7352 140.731 91.7239 140.712 91.7039C140.693 91.6839 140.682 91.6567 140.682 91.6284V90.2234C140.682 90.2092 140.684 90.1949 140.688 90.1816C140.693 90.1683 140.701 90.1562 140.71 90.1461C140.72 90.136 140.731 90.1282 140.744 90.1231C140.757 90.118 140.77 90.1158 140.784 90.1166C140.811 90.1166 140.836 90.1279 140.856 90.1479C140.875 90.1679 140.885 90.1951 140.885 90.2234V91.6059C140.887 91.6216 140.887 91.6375 140.883 91.6528C140.879 91.668 140.872 91.6822 140.862 91.6945C140.852 91.7067 140.84 91.7166 140.827 91.7236C140.814 91.7306 140.799 91.7346 140.784 91.7352Z" fill="white"/>
<path d="M140.202 92.0893C140.184 92.0892 140.167 92.0839 140.151 92.074C140.136 92.064 140.124 92.0499 140.116 92.0331C140.109 92.0216 140.104 92.0086 140.102 91.9949C140.1 91.9812 140.1 91.9671 140.104 91.9538C140.108 91.9404 140.114 91.928 140.122 91.9174C140.131 91.9069 140.142 91.8984 140.154 91.8926L141.312 91.1845C141.324 91.1775 141.337 91.1729 141.35 91.1711C141.363 91.1692 141.377 91.1702 141.39 91.1738C141.403 91.1775 141.415 91.1838 141.425 91.1924C141.436 91.201 141.445 91.2117 141.451 91.2239C141.463 91.2487 141.466 91.2775 141.459 91.3045C141.453 91.3316 141.436 91.3549 141.414 91.37L140.25 92.0725L140.202 92.0893Z" fill="white"/>
<path d="M144.346 89.6615C144.309 89.6732 144.27 89.6732 144.233 89.6615C144.194 89.6339 144.163 89.596 144.142 89.5516C144.122 89.5072 144.113 89.4579 144.116 89.4086V89.1219C144.115 89.1082 144.117 89.0944 144.122 89.0815C144.126 89.0686 144.133 89.0567 144.142 89.0467C144.151 89.0368 144.162 89.0288 144.174 89.0234C144.186 89.0179 144.199 89.0151 144.212 89.0152C144.226 89.0143 144.239 89.0165 144.252 89.0216C144.264 89.0267 144.276 89.0345 144.285 89.0446C144.295 89.0547 144.303 89.0668 144.307 89.0801C144.312 89.0935 144.314 89.1077 144.313 89.1219V89.358C144.313 89.4029 144.313 89.4254 144.313 89.4254C144.313 89.4254 144.346 89.4254 144.378 89.4254C144.44 89.366 144.489 89.2929 144.521 89.2113C144.553 89.1297 144.568 89.0416 144.564 88.9533V87.11C144.564 87.0962 144.567 87.0826 144.572 87.0699C144.577 87.0573 144.585 87.0459 144.594 87.0364C144.604 87.0269 144.615 87.0196 144.628 87.0148C144.64 87.0101 144.653 87.0081 144.666 87.0088C144.691 87.0088 144.716 87.0195 144.734 87.0385C144.752 87.0574 144.762 87.0832 144.762 87.11V88.9871C144.766 89.1122 144.743 89.2366 144.693 89.3506C144.644 89.4646 144.571 89.5652 144.479 89.6446C144.436 89.659 144.391 89.6648 144.346 89.6615Z" fill="white"/>
<path d="M143.288 88.0261V87.8462C143.313 87.3782 143.442 86.9228 143.665 86.5167C143.887 86.1107 144.197 85.7653 144.57 85.5083C144.703 85.3902 144.868 85.3182 145.041 85.302C145.215 85.2857 145.389 85.3261 145.54 85.4175C145.691 85.5089 145.812 85.647 145.885 85.8131C145.959 85.9791 145.983 86.1651 145.953 86.3457V86.4075L143.288 88.0261ZM145.168 85.5308C144.991 85.5366 144.82 85.5929 144.671 85.6938C144.354 85.9139 144.085 86.2027 143.883 86.541C143.68 86.8792 143.548 87.2591 143.496 87.6551L145.75 86.2895C145.759 86.1568 145.735 86.0241 145.68 85.9041C145.626 85.784 145.543 85.6806 145.44 85.6038C145.357 85.5543 145.263 85.5291 145.168 85.5308Z" fill="white"/>
<path d="M147.918 87.5033C147.892 87.5034 147.867 87.4929 147.848 87.4741C147.829 87.4553 147.818 87.4295 147.817 87.4022V83.8166C147.817 83.7883 147.827 83.7611 147.846 83.7411C147.865 83.7211 147.891 83.7098 147.918 83.7098C147.945 83.7098 147.971 83.7211 147.99 83.7411C148.009 83.7611 148.019 83.7883 148.019 83.8166V87.4022C148.018 87.4295 148.007 87.4553 147.988 87.4741C147.969 87.4929 147.944 87.5034 147.918 87.5033Z" fill="white"/>
<path d="M147.646 84.6316H147.608C147.596 84.6261 147.585 84.6181 147.576 84.608C147.566 84.598 147.559 84.5861 147.554 84.573C147.549 84.56 147.546 84.546 147.547 84.5319C147.547 84.5179 147.55 84.504 147.555 84.4911L147.913 83.6256L148.308 84.1089C148.316 84.1193 148.323 84.1312 148.327 84.1442C148.331 84.1571 148.332 84.1707 148.331 84.1843C148.33 84.1979 148.327 84.2111 148.321 84.2232C148.315 84.2354 148.307 84.2462 148.297 84.255C148.287 84.2639 148.276 84.2706 148.264 84.2749C148.251 84.2791 148.238 84.2807 148.226 84.2797C148.213 84.2786 148.2 84.2749 148.189 84.2688C148.177 84.2626 148.167 84.2541 148.158 84.2438L147.966 84.019L147.736 84.581C147.727 84.5976 147.714 84.6112 147.698 84.6201C147.682 84.6291 147.664 84.6331 147.646 84.6316Z" fill="white"/>
<path d="M148.863 86.9526C148.837 86.9512 148.813 86.9393 148.795 86.9194C148.777 86.8995 148.767 86.8732 148.767 86.8458V83.2603C148.764 83.2446 148.764 83.2283 148.767 83.2126C148.77 83.1969 148.777 83.1822 148.786 83.1696C148.796 83.157 148.808 83.1468 148.822 83.1398C148.835 83.1328 148.851 83.1292 148.866 83.1292C148.881 83.1292 148.896 83.1328 148.91 83.1398C148.924 83.1468 148.936 83.157 148.945 83.1696C148.955 83.1822 148.962 83.1969 148.965 83.2126C148.968 83.2283 148.968 83.2446 148.965 83.2603V86.8458C148.965 86.8741 148.954 86.9013 148.935 86.9213C148.916 86.9414 148.89 86.9526 148.863 86.9526Z" fill="white"/>
<path d="M148.569 84.0752H148.532C148.52 84.0697 148.509 84.0617 148.499 84.0516C148.49 84.0416 148.483 84.0297 148.478 84.0166C148.473 84.0036 148.47 83.9896 148.47 83.9756C148.471 83.9615 148.473 83.9476 148.479 83.9347L148.836 83.0692L149.232 83.5525C149.249 83.5723 149.259 83.5985 149.259 83.6256C149.259 83.6527 149.249 83.6789 149.232 83.6987C149.212 83.7176 149.186 83.7281 149.16 83.7281C149.133 83.7281 149.107 83.7176 149.087 83.6987L148.901 83.4682L148.671 84.0302C148.66 84.0472 148.644 84.0605 148.626 84.0685C148.608 84.0764 148.589 84.0788 148.569 84.0752Z" fill="white"/>
<path d="M138.05 95.6467L125.036 87.7394L125.041 71.9191L138.05 79.8264V95.6467Z" fill="#E0E0E0"/>
<path d="M132.25 76.3028L145.253 68.3898L143.785 67.4962L130.777 75.4092L132.25 76.3028Z" fill="white"/>
<path d="M127.012 80.9897L131.674 83.7997C131.942 83.9856 132.165 84.2349 132.325 84.5276C132.486 84.8203 132.579 85.1484 132.598 85.4857V88.5093C132.598 89.1331 132.181 89.386 131.674 89.0713L127.012 86.2613C126.744 86.0757 126.52 85.8266 126.36 85.5338C126.199 85.241 126.106 84.9127 126.088 84.5753V81.5517C126.088 80.9279 126.505 80.6806 127.012 80.9897Z" fill="#FC6A43"/>
<path d="M126.654 81.7429L126.83 81.8553V85.2105L126.654 85.1037V81.7429Z" fill="#FC6A43"/>
<path d="M127.375 82.1813L127.679 82.3724V85.7275L127.375 85.542V82.1813Z" fill="#FC6A43"/>
<path d="M128.096 82.6196L128.272 82.7264V86.0872L128.096 85.9804V82.6196Z" fill="#FC6A43"/>
<path d="M128.635 82.9456L128.993 83.1647V86.5255L128.635 86.3007V82.9456Z" fill="#FC6A43"/>
<path d="M129.532 83.4963L129.714 83.6031V86.9639L129.532 86.8515V83.4963Z" fill="#FC6A43"/>
<path d="M130.056 83.8054L130.43 84.0415V87.3966L130.05 87.1606L130.056 83.8054Z" fill="#FC6A43"/>
<path d="M130.974 84.373L131.15 84.4798V87.835L130.974 87.7282V84.373Z" fill="#FC6A43"/>
<path d="M131.385 84.6147L131.476 84.6709V88.0261L131.385 87.9755V84.6147Z" fill="#FC6A43"/>
<path d="M130.648 84.1876L130.734 84.2438V87.599L130.648 87.5484V84.1876Z" fill="#FC6A43"/>
<path d="M129.196 83.2939L129.281 83.3445V86.7053L129.196 86.6491V83.2939Z" fill="#FC6A43"/>
<path d="M128.4 82.8107L128.491 82.8669V86.2276L128.4 86.1714V82.8107Z" fill="#FC6A43"/>
<path d="M127.829 82.4791L127.92 82.5353V85.8961L127.829 85.8399V82.4791Z" fill="#FC6A43"/>
<path d="M127.055 81.9845L127.145 82.0407V85.4015L127.055 85.3453V81.9845Z" fill="#FC6A43"/>
<path d="M131.695 84.8058L131.871 84.9126V88.2733L131.695 88.1666V84.8058Z" fill="#FC6A43"/>
<path d="M133.714 69.2833L118.527 60.0609L103.345 69.2833L118.527 78.5114L133.714 69.2833Z" fill="#F5F5F5"/>
<path d="M112.017 74.5548L127.204 65.3324L125.73 64.4388L110.549 73.6613L112.017 74.5548Z" fill="white"/>
<path d="M118.527 107.505L133.714 98.2825V69.2833L118.527 78.5114V107.505Z" fill="#EBEBEB"/>
<path d="M121.036 102.284C120.967 102.285 120.898 102.266 120.839 102.228C120.755 102.165 120.688 102.08 120.644 101.981C120.601 101.883 120.584 101.774 120.593 101.666V99.9798V99.8561H120.679L121.923 99.0862V100.958C121.92 101.198 121.863 101.435 121.756 101.648C121.65 101.861 121.496 102.045 121.309 102.183C121.229 102.242 121.134 102.277 121.036 102.284ZM120.796 100.109V101.66C120.787 101.732 120.796 101.806 120.821 101.873C120.846 101.941 120.887 102.001 120.94 102.048C120.984 102.068 121.031 102.076 121.078 102.07C121.125 102.064 121.17 102.045 121.207 102.014C121.367 101.897 121.499 101.742 121.592 101.561C121.684 101.381 121.736 101.18 121.741 100.975V100.84H121.277L121.186 100.182L120.796 100.109ZM121.437 100.626H121.752V99.474L121.004 99.9348L121.373 100.002L121.437 100.626Z" fill="white"/>
<path d="M121.261 103.599C121.234 103.599 121.208 103.588 121.189 103.568C121.17 103.548 121.159 103.521 121.159 103.492V102.082C121.159 102.068 121.162 102.054 121.167 102.042C121.172 102.029 121.18 102.018 121.189 102.008C121.199 101.999 121.21 101.991 121.222 101.987C121.235 101.982 121.248 101.98 121.261 101.981C121.287 101.98 121.312 101.991 121.331 102.01C121.35 102.029 121.361 102.054 121.362 102.082V103.492C121.361 103.52 121.35 103.547 121.331 103.566C121.312 103.586 121.287 103.598 121.261 103.599Z" fill="white"/>
<path d="M120.684 103.97C120.667 103.97 120.65 103.966 120.635 103.957C120.62 103.948 120.607 103.935 120.599 103.919C120.586 103.894 120.583 103.866 120.59 103.839C120.597 103.812 120.614 103.788 120.636 103.773L121.795 103.071C121.806 103.064 121.819 103.059 121.832 103.057C121.846 103.055 121.859 103.056 121.872 103.06C121.885 103.064 121.897 103.07 121.907 103.079C121.918 103.087 121.927 103.098 121.934 103.11C121.94 103.122 121.944 103.135 121.946 103.148C121.948 103.162 121.947 103.176 121.943 103.189C121.94 103.202 121.934 103.214 121.926 103.225C121.918 103.235 121.908 103.244 121.896 103.251L120.732 103.959C120.718 103.968 120.701 103.972 120.684 103.97Z" fill="white"/>
<path d="M124.823 101.525C124.784 101.525 124.745 101.516 124.71 101.497C124.671 101.47 124.64 101.432 124.619 101.387C124.599 101.343 124.59 101.294 124.593 101.244V100.952C124.593 100.938 124.596 100.925 124.601 100.912C124.606 100.899 124.613 100.888 124.623 100.878C124.632 100.869 124.644 100.862 124.656 100.857C124.668 100.852 124.681 100.85 124.694 100.851C124.707 100.851 124.719 100.853 124.731 100.859C124.743 100.864 124.753 100.871 124.762 100.88C124.771 100.89 124.778 100.901 124.783 100.913C124.788 100.926 124.79 100.939 124.79 100.952V101.244C124.79 101.284 124.79 101.306 124.79 101.312C124.79 101.317 124.823 101.312 124.855 101.312C124.917 101.251 124.966 101.177 124.998 101.095C125.03 101.012 125.045 100.923 125.041 100.834V98.9625C125.041 98.9342 125.052 98.907 125.071 98.887C125.09 98.867 125.116 98.8557 125.143 98.8557C125.169 98.8571 125.194 98.8688 125.213 98.8885C125.232 98.9082 125.243 98.9346 125.244 98.9625V100.834C125.249 100.96 125.226 101.085 125.176 101.199C125.126 101.314 125.05 101.414 124.956 101.491C124.915 101.513 124.869 101.525 124.823 101.525Z" fill="white"/>
<path d="M123.765 99.8898V99.7044C123.79 99.2372 123.92 98.7828 124.142 98.3777C124.365 97.9726 124.675 97.6281 125.047 97.3721C125.18 97.254 125.345 97.182 125.518 97.1657C125.692 97.1495 125.866 97.1898 126.017 97.2813C126.168 97.3727 126.288 97.5108 126.362 97.6768C126.436 97.8429 126.46 98.0288 126.43 98.2094V98.2713L123.765 99.8898ZM125.645 97.3889C125.469 97.3974 125.298 97.4536 125.148 97.5519C124.831 97.7727 124.561 98.0624 124.359 98.4016C124.156 98.7409 124.025 99.1218 123.973 99.5189L126.227 98.1532C126.235 98.0199 126.211 97.8866 126.157 97.7657C126.102 97.6449 126.02 97.5404 125.917 97.462C125.834 97.4141 125.74 97.389 125.645 97.3889Z" fill="white"/>
<path d="M128.416 99.3672C128.389 99.3672 128.364 99.356 128.345 99.336C128.326 99.3159 128.315 99.2888 128.315 99.2604V95.6749C128.315 95.6466 128.326 95.6194 128.345 95.5994C128.364 95.5794 128.389 95.5681 128.416 95.5681C128.443 95.5681 128.469 95.5794 128.488 95.5994C128.507 95.6194 128.518 95.6466 128.518 95.6749V99.2604C128.518 99.2888 128.507 99.3159 128.488 99.336C128.469 99.356 128.443 99.3672 128.416 99.3672Z" fill="white"/>
<path d="M128.123 96.4954H128.085C128.073 96.4904 128.062 96.483 128.053 96.4735C128.044 96.4639 128.036 96.4525 128.031 96.4399C128.026 96.4273 128.024 96.4138 128.024 96.4001C128.024 96.3865 128.027 96.373 128.032 96.3605L128.39 95.495L128.785 95.9783C128.802 95.9992 128.81 96.0263 128.808 96.0537C128.806 96.0811 128.794 96.1065 128.774 96.1244C128.754 96.1423 128.729 96.1512 128.702 96.1491C128.676 96.147 128.652 96.1341 128.635 96.1132L128.443 95.8828L128.213 96.4448C128.204 96.4614 128.191 96.475 128.175 96.4839C128.159 96.4929 128.141 96.4968 128.123 96.4954Z" fill="white"/>
<path d="M129.34 98.8108C129.315 98.8108 129.29 98.8001 129.272 98.7811C129.254 98.7621 129.244 98.7364 129.244 98.7096V95.124C129.243 95.1103 129.245 95.0965 129.25 95.0836C129.254 95.0707 129.261 95.0588 129.27 95.0488C129.279 95.0388 129.29 95.0309 129.302 95.0255C129.314 95.02 129.327 95.0172 129.34 95.0173C129.354 95.0164 129.367 95.0186 129.38 95.0237C129.393 95.0288 129.404 95.0366 129.414 95.0467C129.423 95.0568 129.431 95.0689 129.435 95.0822C129.44 95.0955 129.442 95.1098 129.442 95.124V98.7096C129.442 98.7234 129.439 98.737 129.434 98.7496C129.429 98.7623 129.421 98.7737 129.412 98.7832C129.402 98.7927 129.391 98.8 129.379 98.8047C129.366 98.8095 129.353 98.8115 129.34 98.8108Z" fill="white"/>
<path d="M129.052 95.939H129.009C128.985 95.9267 128.966 95.9056 128.957 95.8796C128.947 95.8536 128.946 95.8247 128.956 95.7985L129.313 94.933L129.714 95.4163C129.731 95.4367 129.74 95.4626 129.74 95.4894C129.74 95.5162 129.731 95.5421 129.714 95.5624C129.705 95.5724 129.693 95.5804 129.681 95.5858C129.669 95.5913 129.655 95.5941 129.642 95.5941C129.628 95.5941 129.615 95.5913 129.603 95.5858C129.59 95.5804 129.579 95.5724 129.57 95.5624L129.383 95.332L129.153 95.894C129.143 95.9115 129.127 95.9252 129.109 95.9333C129.091 95.9413 129.071 95.9433 129.052 95.939Z" fill="white"/>
<path d="M118.527 107.505L103.345 98.2825V69.2833L118.527 78.5114V107.505Z" fill="#E0E0E0"/>
<path d="M106.432 92.2523L111.088 95.0623C111.357 95.2472 111.582 95.4961 111.743 95.7889C111.905 96.0818 111.998 96.4103 112.017 96.7483V99.7775C112.017 100.396 111.601 100.649 111.088 100.339L106.432 97.5295C106.162 97.3449 105.938 97.096 105.778 96.803C105.617 96.51 105.525 96.1812 105.508 95.8435V92.8199C105.508 92.168 105.924 91.9432 106.432 92.2523Z" fill="#F5F5F5"/>
<path d="M106.074 93.0054L106.25 93.1178V96.4729L106.074 96.3661V93.0054Z" fill="#E0E0E0"/>
<path d="M106.795 93.4437L107.099 93.6348V96.9956L106.795 96.8045V93.4437Z" fill="#E0E0E0"/>
<path d="M107.51 93.8821L107.692 93.9889L107.686 97.3496L107.51 97.2428V93.8821Z" fill="#E0E0E0"/>
<path d="M108.055 94.208L108.407 94.4272V97.7879L108.055 97.5631V94.208Z" fill="#E0E0E0"/>
<path d="M108.952 94.7588L109.128 94.8656V98.2263L108.952 98.1139V94.7588Z" fill="#E0E0E0"/>
<path d="M109.47 95.0679L109.849 95.3039V98.659L109.47 98.423V95.0679Z" fill="#E0E0E0"/>
<path d="M110.394 95.6299L110.57 95.7423V99.0974L110.394 98.9906V95.6299Z" fill="#E0E0E0"/>
<path d="M110.805 95.8772L110.896 95.9334V99.2942L110.805 99.238V95.8772Z" fill="#E0E0E0"/>
<path d="M110.068 95.4501L110.154 95.5063V98.8614L110.068 98.8108V95.4501Z" fill="#E0E0E0"/>
<path d="M108.616 94.5565L108.701 94.6071V97.9679L108.616 97.9117V94.5565Z" fill="#E0E0E0"/>
<path d="M107.82 94.0731L107.905 94.1293V97.4901L107.82 97.4339V94.0731Z" fill="#E0E0E0"/>
<path d="M107.249 93.7416L107.339 93.7978V97.1585L107.249 97.1023V93.7416Z" fill="#E0E0E0"/>
<path d="M106.474 93.2471L106.565 93.3033V96.664L106.474 96.6078V93.2471Z" fill="#E0E0E0"/>
<path d="M111.115 96.0682L111.291 96.175V99.5358L111.115 99.429V96.0682Z" fill="#E0E0E0"/>
<path d="M110.549 77.4042L112.017 78.2978V74.5548L110.549 73.6613V77.4042Z" fill="#F0F0F0"/>
<path d="M88.1581 99.5976L77.3125 93.011L62.1309 102.233L72.9764 108.826L88.1581 99.5976Z" fill="#F5F5F5"/>
<path d="M72.9765 135.183L88.1581 125.961V99.5977L72.9765 108.826V135.183Z" fill="#EBEBEB"/>
<path d="M75.4809 129.94C75.413 129.941 75.3461 129.922 75.2887 129.884C75.2048 129.821 75.1381 129.736 75.095 129.637C75.0519 129.539 75.034 129.43 75.043 129.322V127.636V127.512H75.1231L76.3727 126.742V128.614C76.3701 128.854 76.313 129.091 76.2062 129.304C76.0994 129.517 75.946 129.701 75.7586 129.839C75.6761 129.898 75.5803 129.933 75.4809 129.94ZM75.246 127.765V129.316C75.236 129.388 75.2441 129.462 75.2694 129.53C75.2946 129.598 75.3362 129.658 75.3901 129.704C75.4338 129.722 75.4811 129.728 75.5277 129.723C75.5743 129.717 75.6188 129.699 75.6571 129.67C75.817 129.553 75.9486 129.398 76.0414 129.217C76.1341 129.037 76.1854 128.836 76.1911 128.631V128.496H75.7265L75.6358 127.838L75.246 127.765ZM75.8867 128.282H76.1751V127.124L75.4275 127.585L75.796 127.653L75.8867 128.282Z" fill="white"/>
<path d="M75.7105 131.278C75.6836 131.278 75.6578 131.266 75.6388 131.246C75.6198 131.226 75.6091 131.199 75.6091 131.171V129.76C75.609 129.746 75.6117 129.733 75.6169 129.72C75.622 129.707 75.6296 129.696 75.6391 129.687C75.6486 129.677 75.6598 129.67 75.6721 129.665C75.6844 129.66 75.6975 129.658 75.7105 129.659C75.736 129.659 75.7605 129.67 75.7785 129.689C75.7965 129.708 75.8067 129.733 75.8067 129.76V131.171C75.8067 131.198 75.7967 131.224 75.7788 131.244C75.761 131.264 75.7365 131.276 75.7105 131.278Z" fill="white"/>
<path d="M75.1285 131.626C75.1111 131.627 75.0938 131.623 75.0787 131.614C75.0636 131.605 75.0512 131.592 75.043 131.575C75.0354 131.564 75.0301 131.551 75.0275 131.537C75.025 131.523 75.0252 131.509 75.0283 131.495C75.0313 131.481 75.037 131.468 75.0451 131.457C75.0531 131.446 75.0633 131.436 75.0751 131.429L76.2392 130.727C76.2508 130.72 76.2635 130.715 76.2768 130.713C76.29 130.711 76.3035 130.712 76.3164 130.716C76.3293 130.72 76.3414 130.726 76.3519 130.735C76.3625 130.743 76.3714 130.754 76.378 130.766C76.3846 130.778 76.3889 130.791 76.3905 130.804C76.3922 130.818 76.3913 130.832 76.3878 130.845C76.3843 130.858 76.3783 130.87 76.3702 130.881C76.3621 130.891 76.3521 130.9 76.3407 130.907L75.1765 131.615C75.162 131.624 75.1452 131.628 75.1285 131.626Z" fill="white"/>
<path d="M79.2723 129.204C79.2333 129.204 79.1949 129.194 79.1602 129.176C79.1212 129.148 79.0898 129.11 79.0692 129.066C79.0485 129.021 79.0394 128.972 79.0427 128.923V128.63C79.0427 128.604 79.0528 128.578 79.0708 128.559C79.0889 128.54 79.1133 128.529 79.1388 128.529C79.1519 128.529 79.1649 128.531 79.1772 128.535C79.1895 128.54 79.2008 128.547 79.2103 128.557C79.2198 128.566 79.2273 128.578 79.2325 128.59C79.2376 128.603 79.2403 128.617 79.2403 128.63V128.923C79.2403 128.962 79.2403 128.985 79.2403 128.99C79.2403 128.996 79.2723 128.99 79.3043 128.99C79.3656 128.929 79.4138 128.855 79.446 128.772C79.4782 128.69 79.4936 128.601 79.4912 128.512V126.641C79.4878 126.625 79.4877 126.609 79.491 126.593C79.4944 126.578 79.501 126.563 79.5105 126.55C79.52 126.538 79.5321 126.528 79.5459 126.521C79.5597 126.514 79.5747 126.51 79.59 126.51C79.6053 126.51 79.6204 126.514 79.6342 126.521C79.648 126.528 79.66 126.538 79.6695 126.55C79.679 126.563 79.6857 126.578 79.689 126.593C79.6924 126.609 79.6923 126.625 79.6888 126.641V128.512C79.6932 128.638 79.67 128.762 79.6208 128.876C79.5717 128.99 79.4981 129.091 79.4058 129.17C79.3643 129.192 79.3187 129.203 79.2723 129.204Z" fill="white"/>
<path d="M78.215 127.574V127.389C78.2403 126.921 78.3694 126.467 78.592 126.062C78.8146 125.657 79.1244 125.312 79.4966 125.056C79.6292 124.937 79.7937 124.864 79.9675 124.847C80.1412 124.83 80.3157 124.87 80.4668 124.962C80.6179 125.054 80.7382 125.193 80.8112 125.36C80.8842 125.527 80.9062 125.713 80.8743 125.894V125.955L78.215 127.574ZM80.0947 125.073C79.9186 125.082 79.7475 125.138 79.5981 125.236C79.2803 125.457 79.0111 125.747 78.8085 126.086C78.6058 126.425 78.4745 126.806 78.4233 127.203L80.6767 125.832C80.6843 125.699 80.6598 125.567 80.6057 125.447C80.5515 125.327 80.4694 125.224 80.367 125.146C80.2855 125.097 80.1938 125.07 80.1 125.068L80.0947 125.073Z" fill="white"/>
<path d="M82.8661 127.046C82.8392 127.046 82.8134 127.034 82.7944 127.014C82.7754 126.994 82.7647 126.967 82.7647 126.939V123.353C82.7647 123.325 82.7754 123.298 82.7944 123.278C82.8134 123.258 82.8392 123.247 82.8661 123.247C82.893 123.247 82.9188 123.258 82.9379 123.278C82.9569 123.298 82.9676 123.325 82.9676 123.353V126.939C82.9676 126.967 82.9569 126.994 82.9379 127.014C82.9188 127.034 82.893 127.046 82.8661 127.046Z" fill="white"/>
<path d="M82.5724 124.202H82.5351C82.523 124.197 82.5119 124.19 82.5026 124.18C82.4933 124.171 82.486 124.159 82.481 124.147C82.476 124.134 82.4735 124.12 82.4736 124.107C82.4737 124.093 82.4765 124.08 82.4817 124.067L82.8394 123.202L83.2346 123.685C83.2516 123.706 83.26 123.733 83.258 123.76C83.256 123.788 83.2437 123.813 83.2239 123.831C83.2141 123.84 83.2027 123.847 83.1904 123.851C83.1781 123.855 83.1652 123.857 83.1523 123.856C83.1262 123.854 83.1021 123.841 83.0851 123.82L82.8928 123.589L82.6632 124.151C82.6542 124.168 82.6408 124.182 82.6248 124.191C82.6087 124.2 82.5906 124.203 82.5724 124.202Z" fill="white"/>
<path d="M83.7899 126.489C83.7639 126.489 83.7389 126.479 83.72 126.46C83.7011 126.441 83.6898 126.416 83.6885 126.388V122.803C83.6885 122.774 83.6992 122.747 83.7182 122.727C83.7372 122.707 83.763 122.696 83.7899 122.696C83.8035 122.695 83.817 122.697 83.8297 122.702C83.8423 122.707 83.8538 122.715 83.8634 122.725C83.873 122.735 83.8804 122.747 83.8853 122.761C83.8901 122.774 83.8922 122.788 83.8914 122.803V126.388C83.8914 126.402 83.8888 126.416 83.8836 126.428C83.8784 126.441 83.8709 126.452 83.8614 126.462C83.8519 126.471 83.8406 126.479 83.8284 126.483C83.8161 126.488 83.803 126.49 83.7899 126.489Z" fill="white"/>
<path d="M83.4963 123.64C83.4842 123.645 83.4709 123.645 83.4589 123.64C83.4468 123.635 83.4358 123.628 83.4265 123.618C83.4172 123.609 83.4098 123.597 83.4048 123.585C83.3998 123.572 83.3973 123.558 83.3974 123.545C83.3975 123.531 83.4003 123.518 83.4055 123.505L83.7633 122.64L84.1584 123.123C84.1761 123.143 84.1859 123.169 84.1859 123.196C84.1859 123.223 84.1761 123.249 84.1584 123.269C84.149 123.279 84.1377 123.287 84.1254 123.293C84.113 123.298 84.0997 123.301 84.0863 123.301C84.0729 123.301 84.0596 123.298 84.0473 123.293C84.0349 123.287 84.0237 123.279 84.0142 123.269L83.8273 123.039L83.5977 123.601C83.5861 123.617 83.5703 123.629 83.5524 123.636C83.5344 123.643 83.515 123.644 83.4963 123.64Z" fill="white"/>
<path d="M72.9765 135.183L62.1309 128.597V102.233L72.9765 108.826V135.183Z" fill="#E0E0E0"/>
<path d="M67.1665 109.039L68.635 109.933V106.19L67.1665 105.296V109.039Z" fill="#F5F5F5"/>
<path d="M68.635 106.19L83.822 96.9618L82.3482 96.0682L67.1665 105.296L68.635 106.19Z" fill="white"/>
<path d="M68.635 122.005L49.1173 110.146L29.5943 122.005L49.1173 133.868L68.635 122.005Z" fill="#F5F5F5"/>
<path d="M49.1173 149.683L68.635 137.825V122.005L49.1173 133.868V149.683Z" fill="#EBEBEB"/>
<path d="M51.6218 144.434C51.5542 144.433 51.4881 144.413 51.4295 144.378C51.3461 144.314 51.2796 144.229 51.2366 144.131C51.1936 144.032 51.1754 143.924 51.1839 143.816V142.13V142.006H51.264L52.5136 141.231V143.108C52.5101 143.348 52.4526 143.583 52.3459 143.795C52.2391 144.007 52.0862 144.19 51.8995 144.327C51.8173 144.388 51.7216 144.424 51.6218 144.434ZM51.3815 142.259V143.81C51.372 143.882 51.3803 143.954 51.4056 144.021C51.4308 144.088 51.4722 144.147 51.5257 144.192C51.5694 144.213 51.6176 144.222 51.6654 144.217C51.7133 144.212 51.759 144.194 51.798 144.164C51.9573 144.046 52.0885 143.891 52.1811 143.71C52.2738 143.53 52.3254 143.33 52.332 143.125V142.984H51.8514L51.7606 142.326L51.3815 142.259ZM52.0223 142.776H52.332V141.624L51.5897 142.085L51.9582 142.152L52.0223 142.776Z" fill="white"/>
<path d="M51.8461 145.772C51.8334 145.772 51.8209 145.769 51.8093 145.764C51.7976 145.759 51.787 145.751 51.7781 145.742C51.7692 145.733 51.7621 145.721 51.7573 145.709C51.7524 145.697 51.7499 145.684 51.7499 145.67V144.26C51.7465 144.244 51.7464 144.228 51.7497 144.212C51.7531 144.196 51.7597 144.182 51.7692 144.169C51.7787 144.156 51.7908 144.146 51.8046 144.139C51.8183 144.132 51.8334 144.129 51.8487 144.129C51.864 144.129 51.8791 144.132 51.8929 144.139C51.9066 144.146 51.9187 144.156 51.9282 144.169C51.9377 144.182 51.9444 144.196 51.9477 144.212C51.9511 144.228 51.951 144.244 51.9475 144.26V145.67C51.9475 145.684 51.9449 145.698 51.9397 145.71C51.9346 145.723 51.927 145.735 51.9175 145.744C51.908 145.753 51.8968 145.761 51.8845 145.766C51.8722 145.77 51.8591 145.772 51.8461 145.772Z" fill="white"/>
<path d="M51.264 146.12C51.2426 146.119 51.2222 146.11 51.2057 146.096C51.1892 146.081 51.1774 146.062 51.1721 146.04C51.1668 146.018 51.1681 145.995 51.176 145.974C51.1839 145.953 51.1979 145.935 51.216 145.923L52.3801 145.221C52.3907 145.213 52.4027 145.207 52.4155 145.205C52.4283 145.202 52.4415 145.202 52.4541 145.206C52.4668 145.209 52.4787 145.215 52.4889 145.223C52.4992 145.232 52.5076 145.242 52.5136 145.254C52.5212 145.266 52.5265 145.279 52.5291 145.293C52.5316 145.307 52.5314 145.321 52.5283 145.335C52.5253 145.349 52.5196 145.362 52.5115 145.373C52.5035 145.384 52.4932 145.394 52.4815 145.401L51.3174 146.12H51.264Z" fill="white"/>
<path d="M55.4078 143.703C55.3727 143.712 55.3362 143.712 55.301 143.703C55.2602 143.676 55.2273 143.638 55.2056 143.592C55.184 143.547 55.1745 143.496 55.1782 143.445V143.158C55.1782 143.13 55.1889 143.103 55.2079 143.083C55.227 143.063 55.2528 143.051 55.2797 143.051C55.3066 143.051 55.3324 143.063 55.3514 143.083C55.3705 143.103 55.3811 143.13 55.3811 143.158V143.445C55.3738 143.469 55.3738 143.494 55.3811 143.518C55.3811 143.518 55.4132 143.518 55.4506 143.518C55.5108 143.456 55.5581 143.382 55.5894 143.299C55.6206 143.217 55.6352 143.129 55.6321 143.04V141.169C55.6334 141.141 55.6445 141.115 55.6633 141.095C55.682 141.075 55.7071 141.063 55.7336 141.062C55.7605 141.062 55.7863 141.073 55.8053 141.093C55.8244 141.113 55.835 141.14 55.835 141.169V143.04C55.8394 143.165 55.8162 143.29 55.7671 143.404C55.7179 143.518 55.6443 143.619 55.552 143.698C55.5051 143.712 55.4557 143.714 55.4078 143.703Z" fill="white"/>
<path d="M54.3559 142.068V141.882C54.3791 141.415 54.5073 140.959 54.7301 140.554C54.9529 140.149 55.2638 139.805 55.6375 139.55C55.7701 139.431 55.9346 139.358 56.1084 139.341C56.2821 139.324 56.4565 139.364 56.6076 139.456C56.7587 139.548 56.8791 139.687 56.9521 139.854C57.025 140.02 57.0471 140.207 57.0152 140.388V140.449L54.3559 142.068ZM56.2355 139.567C56.0579 139.577 55.8854 139.633 55.7336 139.73C55.4168 139.951 55.1486 140.241 54.9469 140.581C54.7453 140.92 54.6147 141.3 54.5641 141.697L56.8123 140.326C56.8209 140.194 56.7975 140.061 56.7442 139.942C56.691 139.822 56.6097 139.718 56.5079 139.64C56.4249 139.591 56.3309 139.565 56.2355 139.567Z" fill="white"/>
<path d="M59.007 141.545C58.9935 141.546 58.9799 141.544 58.9673 141.539C58.9546 141.534 58.9431 141.526 58.9335 141.516C58.924 141.506 58.9165 141.494 58.9117 141.48C58.9069 141.467 58.9048 141.453 58.9055 141.438V137.853C58.9021 137.837 58.902 137.821 58.9053 137.805C58.9087 137.79 58.9153 137.775 58.9248 137.762C58.9343 137.75 58.9464 137.739 58.9602 137.732C58.974 137.725 58.9891 137.722 59.0043 137.722C59.0196 137.722 59.0347 137.725 59.0485 137.732C59.0623 137.739 59.0743 137.75 59.0838 137.762C59.0933 137.775 59.1 137.79 59.1034 137.805C59.1067 137.821 59.1066 137.837 59.1031 137.853V141.438C59.1039 141.452 59.1019 141.466 59.0974 141.479C59.0929 141.492 59.0859 141.504 59.0769 141.514C59.0679 141.524 59.0571 141.532 59.0451 141.537C59.033 141.543 59.0201 141.545 59.007 141.545Z" fill="white"/>
<path d="M58.74 138.673H58.6973C58.685 138.668 58.6738 138.66 58.6646 138.65C58.6554 138.64 58.6484 138.628 58.6438 138.614C58.6393 138.601 58.6375 138.587 58.6384 138.573C58.6393 138.559 58.643 138.545 58.6492 138.533L59.0017 137.667L59.4022 138.151C59.4199 138.172 59.4287 138.201 59.4267 138.229C59.4247 138.257 59.412 138.284 59.3915 138.303C59.3709 138.321 59.3442 138.33 59.3172 138.328C59.2901 138.326 59.265 138.313 59.2473 138.291L59.0604 138.061L58.8308 138.623C58.8213 138.639 58.8079 138.652 58.7919 138.661C58.776 138.67 58.758 138.674 58.74 138.673Z" fill="white"/>
<path d="M59.9308 140.989C59.9039 140.989 59.8781 140.978 59.8591 140.958C59.8401 140.938 59.8294 140.91 59.8294 140.882V137.297C59.8294 137.268 59.8401 137.241 59.8591 137.221C59.8781 137.201 59.9039 137.19 59.9308 137.19C59.9577 137.19 59.9835 137.201 60.0026 137.221C60.0216 137.241 60.0323 137.268 60.0323 137.297V140.882C60.0323 140.91 60.0216 140.938 60.0026 140.958C59.9835 140.978 59.9577 140.989 59.9308 140.989Z" fill="white"/>
<path d="M59.6371 138.117H59.5998C59.5877 138.112 59.5766 138.105 59.5673 138.095C59.558 138.086 59.5507 138.074 59.5457 138.062C59.5407 138.049 59.5382 138.035 59.5383 138.022C59.5384 138.008 59.5412 137.995 59.5464 137.982L59.9041 137.111L60.2993 137.594C60.3088 137.604 60.3164 137.616 60.3215 137.629C60.3267 137.642 60.3294 137.656 60.3294 137.67C60.3294 137.684 60.3267 137.698 60.3215 137.711C60.3164 137.724 60.3088 137.736 60.2993 137.746C60.2903 137.756 60.2795 137.764 60.2676 137.769C60.2557 137.775 60.2428 137.777 60.2299 137.777C60.2169 137.777 60.2041 137.775 60.1921 137.769C60.1802 137.764 60.1694 137.756 60.1605 137.746L59.9682 137.516L59.7386 138.078C59.7274 138.094 59.7117 138.107 59.6936 138.114C59.6755 138.121 59.6558 138.122 59.6371 138.117Z" fill="white"/>
<path d="M49.1173 149.683L29.5943 137.825V122.005L49.1173 133.868V149.683Z" fill="#E0E0E0"/>
<path d="M38.6189 131.233L40.0874 132.126V128.383L38.6189 127.49V131.233Z" fill="#F5F5F5"/>
<path d="M40.0874 128.383L59.6104 116.525L58.1419 115.626L38.6189 127.49L40.0874 128.383Z" fill="white"/>
<path d="M32.6861 131.795L37.3426 134.605C37.612 134.79 37.8364 135.038 37.9978 135.331C38.1592 135.624 38.253 135.953 38.2718 136.291V139.32C38.2718 139.938 37.8553 140.191 37.3426 139.882L32.6861 137.072C32.4169 136.887 32.1928 136.638 32.0323 136.345C31.8717 136.052 31.7792 135.723 31.7623 135.386V132.362C31.7623 131.733 32.1788 131.508 32.6861 131.795Z" fill="#F5F5F5"/>
<path d="M32.3284 132.548L32.5046 132.654V136.015L32.3284 135.908V132.548Z" fill="#E0E0E0"/>
<path d="M33.0439 132.986L33.3536 133.177V136.532L33.0439 136.347V132.986Z" fill="#E0E0E0"/>
<path d="M33.7648 133.424L33.9464 133.531L33.9411 136.892L33.7648 136.785V133.424Z" fill="#E0E0E0"/>
<path d="M34.3095 133.75L34.6673 133.97L34.662 137.33L34.3095 137.105V133.75Z" fill="#E0E0E0"/>
<path d="M35.2066 134.301L35.3828 134.408V137.769L35.2066 137.656V134.301Z" fill="#E0E0E0"/>
<path d="M35.7246 134.61L36.1037 134.846V138.201L35.7246 137.965V134.61Z" fill="#E0E0E0"/>
<path d="M36.6484 135.178L36.8246 135.285V138.64L36.6484 138.533V135.178Z" fill="#E0E0E0"/>
<path d="M37.0596 135.419L37.1504 135.476V138.831L37.0596 138.78V135.419Z" fill="#E0E0E0"/>
<path d="M36.3227 134.992L36.4081 135.043V138.404L36.3227 138.353V134.992Z" fill="#E0E0E0"/>
<path d="M34.8702 134.099L34.9556 134.149V137.51L34.8702 137.454V134.099Z" fill="#E0E0E0"/>
<path d="M34.0746 133.615L34.1653 133.672V137.027L34.0746 136.976V133.615Z" fill="#E0E0E0"/>
<path d="M33.5032 133.284L33.594 133.34V136.701L33.5032 136.645V133.284Z" fill="#E0E0E0"/>
<path d="M32.7289 132.789L32.8196 132.846V136.201L32.7289 136.15V132.789Z" fill="#E0E0E0"/>
<path d="M37.3693 135.611L37.5455 135.723V139.078L37.3693 138.971V135.611Z" fill="#E0E0E0"/>
<path d="M64.2989 90.3751L49.1173 81.1471L33.9304 90.3751L49.1173 99.5976L64.2989 90.3751Z" fill="#F5F5F5"/>
<path d="M49.1173 131.233L64.2989 122.005V90.3752L49.1173 99.5977V131.233Z" fill="#EBEBEB"/>
<path d="M51.6218 125.984C51.5547 125.984 51.4885 125.967 51.4295 125.933C51.3461 125.869 51.2796 125.784 51.2366 125.686C51.1936 125.587 51.1754 125.479 51.1839 125.371V123.685V123.561H51.264L52.5136 122.791V124.663C52.5105 124.904 52.4533 125.14 52.3465 125.353C52.2398 125.566 52.0866 125.749 51.8995 125.888C51.8164 125.945 51.7207 125.978 51.6218 125.984ZM51.3815 123.809V125.365C51.373 125.437 51.3818 125.509 51.407 125.576C51.4322 125.643 51.473 125.702 51.5257 125.748C51.5694 125.769 51.6176 125.777 51.6654 125.772C51.7133 125.767 51.759 125.749 51.798 125.719C51.9574 125.6 52.0886 125.444 52.1812 125.262C52.2738 125.081 52.3254 124.88 52.332 124.674V124.539H51.8514L51.7606 123.882L51.3815 123.809ZM52.0223 124.326H52.332V123.174L51.5897 123.634L51.9582 123.702L52.0223 124.326Z" fill="white"/>
<path d="M51.8461 127.321C51.833 127.321 51.82 127.318 51.808 127.313C51.796 127.307 51.7851 127.3 51.7761 127.29C51.7671 127.28 51.7602 127.268 51.7557 127.255C51.7512 127.242 51.7492 127.228 51.75 127.214V125.809C51.7492 125.796 51.7512 125.782 51.7557 125.769C51.7602 125.756 51.7671 125.744 51.7761 125.734C51.7851 125.724 51.796 125.716 51.808 125.711C51.82 125.705 51.833 125.703 51.8461 125.703C51.8596 125.702 51.8731 125.704 51.8858 125.709C51.8985 125.714 51.91 125.722 51.9195 125.732C51.9291 125.742 51.9366 125.754 51.9414 125.768C51.9462 125.781 51.9483 125.795 51.9475 125.809V127.214C51.9483 127.229 51.9462 127.243 51.9414 127.256C51.9366 127.269 51.9291 127.282 51.9195 127.292C51.91 127.302 51.8985 127.31 51.8858 127.315C51.8731 127.32 51.8596 127.322 51.8461 127.321Z" fill="white"/>
<path d="M51.264 127.675C51.2426 127.674 51.2222 127.665 51.2057 127.651C51.1892 127.636 51.1774 127.617 51.1721 127.595C51.1668 127.573 51.1681 127.55 51.176 127.529C51.1839 127.508 51.1979 127.49 51.216 127.478L52.3801 126.77C52.4034 126.756 52.4312 126.752 52.4572 126.76C52.4833 126.767 52.5055 126.785 52.5189 126.81C52.5324 126.834 52.536 126.863 52.529 126.891C52.522 126.918 52.5049 126.942 52.4815 126.956L51.3174 127.658C51.3017 127.67 51.2831 127.675 51.264 127.675Z" fill="white"/>
<path d="M55.4078 125.253C55.3699 125.253 55.3327 125.241 55.301 125.219C55.2603 125.193 55.2271 125.156 55.2055 125.111C55.1838 125.066 55.1743 125.016 55.1782 124.966V124.68C55.1782 124.651 55.1889 124.624 55.2079 124.604C55.227 124.584 55.2528 124.573 55.2797 124.573C55.3066 124.573 55.3324 124.584 55.3514 124.604C55.3705 124.624 55.3811 124.651 55.3811 124.68V124.966C55.3738 124.99 55.3738 125.016 55.3811 125.039C55.4038 125.046 55.4279 125.046 55.4506 125.039C55.5115 124.979 55.5593 124.906 55.5907 124.824C55.622 124.743 55.6362 124.655 55.6321 124.567V122.696C55.6321 122.667 55.6428 122.64 55.6618 122.62C55.6809 122.6 55.7067 122.589 55.7336 122.589C55.7471 122.588 55.7606 122.59 55.7733 122.595C55.786 122.601 55.7975 122.608 55.807 122.618C55.8166 122.629 55.8241 122.641 55.8289 122.654C55.8337 122.667 55.8358 122.682 55.835 122.696V124.567C55.8394 124.692 55.8162 124.817 55.7671 124.931C55.7179 125.045 55.6443 125.146 55.552 125.225C55.5068 125.246 55.4574 125.256 55.4078 125.253Z" fill="white"/>
<path d="M54.3559 123.64V123.46C54.3799 122.992 54.5085 122.536 54.7312 122.13C54.9538 121.724 55.2643 121.378 55.6375 121.122C55.7713 121.006 55.9359 120.935 56.109 120.92C56.2821 120.905 56.4555 120.946 56.6057 121.038C56.7559 121.13 56.8757 121.268 56.9489 121.434C57.0221 121.6 57.0453 121.785 57.0152 121.965V122.021L54.3559 123.64ZM56.2355 121.145C56.0579 121.154 55.8854 121.21 55.7336 121.308C55.4174 121.528 55.1496 121.817 54.948 122.156C54.7463 122.494 54.6155 122.873 54.5641 123.269L56.8123 121.903C56.8219 121.771 56.799 121.639 56.7456 121.518C56.6923 121.398 56.6104 121.295 56.5079 121.218C56.4277 121.158 56.3334 121.123 56.2355 121.117V121.145Z" fill="white"/>
<path d="M59.007 123.078C58.9801 123.078 58.9543 123.067 58.9353 123.047C58.9162 123.027 58.9055 123 58.9055 122.971V119.386C58.9021 119.37 58.902 119.354 58.9053 119.338C58.9087 119.322 58.9153 119.308 58.9248 119.295C58.9343 119.282 58.9464 119.272 58.9602 119.265C58.974 119.258 58.9891 119.255 59.0043 119.255C59.0196 119.255 59.0347 119.258 59.0485 119.265C59.0623 119.272 59.0743 119.282 59.0838 119.295C59.0933 119.308 59.1 119.322 59.1034 119.338C59.1067 119.354 59.1066 119.37 59.1031 119.386V122.971C59.1032 122.999 59.0932 123.025 59.0753 123.045C59.0574 123.065 59.033 123.077 59.007 123.078Z" fill="white"/>
<path d="M58.74 120.217H58.6973C58.685 120.212 58.6738 120.204 58.6646 120.194C58.6554 120.184 58.6484 120.172 58.6438 120.158C58.6393 120.145 58.6375 120.131 58.6384 120.117C58.6393 120.103 58.643 120.089 58.6492 120.077L59.0017 119.211L59.4022 119.695C59.4198 119.715 59.4296 119.741 59.4296 119.768C59.4296 119.795 59.4198 119.821 59.4022 119.841C59.3825 119.86 59.3568 119.87 59.3301 119.87C59.3034 119.87 59.2777 119.86 59.258 119.841L59.0711 119.61L58.8415 120.172C58.831 120.19 58.8156 120.204 58.7975 120.212C58.7793 120.22 58.7593 120.222 58.74 120.217Z" fill="white"/>
<path d="M59.9308 122.516C59.9043 122.515 59.8793 122.503 59.8605 122.483C59.8418 122.463 59.8307 122.437 59.8294 122.409V118.824C59.8294 118.795 59.8401 118.768 59.8591 118.748C59.8781 118.728 59.9039 118.717 59.9308 118.717C59.9577 118.717 59.9835 118.728 60.0026 118.748C60.0216 118.768 60.0323 118.795 60.0323 118.824V122.409C60.031 122.437 60.0199 122.463 60.0011 122.483C59.9824 122.503 59.9573 122.515 59.9308 122.516Z" fill="white"/>
<path d="M59.6371 119.667H59.5997C59.5875 119.661 59.5763 119.653 59.567 119.643C59.5576 119.633 59.5503 119.621 59.5453 119.608C59.5404 119.595 59.5379 119.581 59.5381 119.567C59.5382 119.553 59.5411 119.539 59.5463 119.526L59.9041 118.661L60.2993 119.144C60.3088 119.154 60.3164 119.166 60.3215 119.179C60.3267 119.192 60.3293 119.206 60.3293 119.22C60.3293 119.234 60.3267 119.248 60.3215 119.261C60.3164 119.274 60.3088 119.286 60.2993 119.296C60.2799 119.313 60.2553 119.323 60.2299 119.323C60.2044 119.323 60.1798 119.313 60.1604 119.296L59.9682 119.065L59.7386 119.627C59.7269 119.643 59.7112 119.655 59.6932 119.662C59.6753 119.669 59.6558 119.671 59.6371 119.667Z" fill="white"/>
<path d="M49.1173 131.233L33.9304 122.005V90.3752L49.1173 99.5977V131.233Z" fill="#E0E0E0"/>
<path d="M41.134 98.4905L42.6079 99.3841V95.6468L41.134 94.7476V98.4905Z" fill="#F5F5F5"/>
<path d="M42.6079 95.6468L57.7895 86.4187L56.321 85.5251L41.134 94.7476L42.6079 95.6468Z" fill="white"/>
<path d="M37.0222 115.974L41.6787 118.784C41.9483 118.969 42.1726 119.217 42.3331 119.51C42.4937 119.804 42.586 120.132 42.6025 120.47V123.494C42.6025 124.112 42.1913 124.365 41.6787 124.056L37.0222 121.246C36.7519 121.062 36.5269 120.813 36.3654 120.52C36.2039 120.227 36.1106 119.898 36.0931 119.56V116.536C36.0984 115.918 36.5096 115.665 37.0222 115.974Z" fill="#F5F5F5"/>
<path d="M36.6591 116.733L36.8353 116.84V120.201L36.6591 120.088V116.733Z" fill="#E0E0E0"/>
<path d="M37.38 117.171L37.6844 117.357V120.718L37.38 120.527V117.171Z" fill="#E0E0E0"/>
<path d="M38.1009 117.604L38.2771 117.717V121.072L38.1009 120.965V117.604Z" fill="#E0E0E0"/>
<path d="M38.6456 117.93L38.998 118.155V121.51L38.6456 121.291V117.93Z" fill="#E0E0E0"/>
<path d="M39.5427 118.481L39.7189 118.588V121.948L39.5427 121.842V118.481Z" fill="#E0E0E0"/>
<path d="M40.0607 118.79L40.4398 119.026V122.387L40.0607 122.151V118.79Z" fill="#E0E0E0"/>
<path d="M40.9845 119.358L41.1607 119.464V122.825L40.9845 122.713V119.358Z" fill="#E0E0E0"/>
<path d="M41.3957 119.605L41.4811 119.655V123.016L41.3957 122.96V119.605Z" fill="#E0E0E0"/>
<path d="M40.6534 119.172L40.7442 119.228V122.589L40.6534 122.533V119.172Z" fill="#E0E0E0"/>
<path d="M39.2009 118.278L39.2917 118.335V121.69L39.2009 121.639V118.278Z" fill="#E0E0E0"/>
<path d="M38.4053 117.801L38.4961 117.851V121.212L38.4053 121.156V117.801Z" fill="#E0E0E0"/>
<path d="M37.8392 117.469L37.9247 117.52V120.881L37.8392 120.824V117.469Z" fill="#E0E0E0"/>
<path d="M37.0649 116.975L37.1504 117.025V120.386L37.0649 120.33V116.975Z" fill="#E0E0E0"/>
<path d="M41.7001 119.796L41.8816 119.903V123.258L41.7001 123.151V119.796Z" fill="#E0E0E0"/>
<path d="M34.0746 177.452L92.3553 212.858C93.0719 213.24 93.864 213.44 94.6675 213.44C95.471 213.44 96.2632 213.24 96.9797 212.858L224.675 135.302C225.951 134.526 225.951 133.267 224.675 132.492L166.394 97.0855C165.679 96.7003 164.886 96.4994 164.082 96.4994C163.278 96.4994 162.486 96.7003 161.77 97.0855L34.0746 174.642C32.7983 175.417 32.7983 176.676 34.0746 177.452Z" fill="#455A64"/>
<path d="M65.5752 193.89C66.5688 194.418 67.6663 194.693 68.7792 194.693C69.8922 194.693 70.9896 194.418 71.9832 193.89C73.7614 192.811 73.7614 191.08 71.9832 189.984C70.9903 189.454 69.8926 189.178 68.7792 189.178C67.6658 189.178 66.5681 189.454 65.5752 189.984C63.797 191.08 63.797 192.822 65.5752 193.89Z" fill="#263238"/>
<path d="M93.45 212.858L35.1692 177.452C34.0265 176.755 33.909 175.676 34.8115 174.9C34.2415 175.375 33.7728 175.97 33.4361 176.648C33.0993 177.326 32.902 178.071 32.857 178.834V181.121C32.9009 181.966 33.133 182.787 33.5347 183.52C33.9365 184.252 34.4964 184.874 35.1692 185.336L93.45 220.742C94.1626 221.134 94.9586 221.328 95.7622 221.304V213.442C94.9567 213.458 94.1606 213.257 93.45 212.858Z" fill="#37474F"/>
<path d="M224.67 143.181C225.344 142.72 225.906 142.098 226.308 141.365C226.711 140.633 226.944 139.811 226.987 138.966V136.678C226.944 135.914 226.747 135.168 226.409 134.49C226.071 133.812 225.6 133.217 225.028 132.744C225.935 133.52 225.818 134.599 224.675 135.29L96.9797 212.857C96.2666 213.248 95.471 213.441 94.6675 213.419V221.327C95.471 221.349 96.2666 221.155 96.9797 220.765L224.67 143.181Z" fill="#263238"/>
<path d="M101.957 205.523L46.175 171.612C45.406 171.146 45.406 170.387 46.175 169.926L154 104.392C154.43 104.162 154.906 104.042 155.389 104.042C155.871 104.042 156.347 104.162 156.777 104.392L212.58 138.297C213.344 138.763 213.344 139.517 212.58 139.983L104.712 205.523C104.285 205.75 103.813 205.868 103.334 205.868C102.856 205.868 102.384 205.75 101.957 205.523Z" fill="white"/>
<path d="M79.4806 186.59L85.99 182.633L83.822 181.318L77.3125 185.269L79.4806 186.59Z" fill="#FC6A43"/>
<path d="M157.573 139.14L164.082 135.183L161.909 133.868L155.405 137.825L157.573 139.14Z" fill="#FC6A43"/>
<path d="M170.586 131.233L177.096 127.276L174.928 125.961L168.418 129.912L170.586 131.233Z" fill="#FC6A43"/>
<path d="M191.476 117.379C191.729 117.512 192.008 117.582 192.291 117.582C192.573 117.582 192.852 117.512 193.105 117.379C193.203 117.344 193.288 117.277 193.348 117.189C193.409 117.1 193.441 116.994 193.441 116.885C193.441 116.776 193.409 116.669 193.348 116.581C193.288 116.492 193.203 116.425 193.105 116.39C192.853 116.255 192.574 116.184 192.291 116.184C192.008 116.184 191.728 116.255 191.476 116.39C191.378 116.425 191.293 116.492 191.233 116.581C191.173 116.669 191.14 116.776 191.14 116.885C191.14 116.994 191.173 117.1 191.233 117.189C191.293 117.277 191.378 117.344 191.476 117.379Z" fill="#263238"/>
<path d="M194.077 125.141C194.581 125.409 195.138 125.549 195.703 125.549C196.268 125.549 196.825 125.409 197.329 125.141C198.226 124.579 198.226 123.707 197.329 123.162C196.825 122.894 196.268 122.754 195.703 122.754C195.138 122.754 194.581 122.894 194.077 123.162C193.18 123.707 193.18 124.595 194.077 125.141Z" fill="#263238"/>
<path d="M191.781 121.701C192.379 121.336 192.347 120.729 191.711 120.341L181.031 113.839C180.688 113.645 180.305 113.54 179.915 113.532C179.525 113.524 179.139 113.614 178.789 113.794C178.19 114.159 178.223 114.766 178.858 115.154L189.57 121.656C189.91 121.844 190.287 121.946 190.67 121.954C191.054 121.962 191.434 121.875 191.781 121.701Z" fill="#263238"/>
<path d="M173.55 95.3321L173.913 95.1073C173.662 96.0663 173.54 97.0575 173.55 98.0521V99.4234C173.55 104.347 179.162 116.924 181.229 121.375C181.443 121.842 178.607 125.017 178.607 125.017L181.977 122.971C181.977 122.971 190.398 115.665 190.398 109.663V108.292C190.398 102.262 186.628 95.0848 181.977 92.2579C179.627 90.8361 177.507 90.7855 175.98 91.8645L172.776 93.7978L173.55 95.3321ZM177.763 99.9348C177.763 97.1248 179.648 95.9615 181.977 97.3777C181.784 99.193 184.935 104.847 186.184 105.055C186.184 107.865 184.299 109.028 181.977 107.612C180.754 106.769 179.737 105.634 179.009 104.301C178.28 102.967 177.861 101.471 177.785 99.9348H177.763Z" fill="#FC6A43"/>
<path d="M170.084 101.621C170.18 107.646 178.874 125.017 178.874 125.017C178.874 125.017 187.183 117.587 187.092 111.563V110.191C186.996 104.167 183.114 97.0518 178.415 94.3092C173.716 91.5667 169.988 94.2193 170.084 100.25V101.621ZM174.303 102.059C174.26 99.2492 176.129 98.0522 178.473 99.4234C179.713 100.243 180.75 101.359 181.503 102.68C182.255 104.001 182.701 105.491 182.804 107.027C182.852 109.837 180.983 111.034 178.634 109.663C177.396 108.842 176.359 107.725 175.607 106.405C174.855 105.084 174.408 103.595 174.303 102.059Z" fill="#FC6A43"/>
<path opacity="0.1" d="M170.084 101.621C170.18 107.646 178.874 125.017 178.874 125.017C178.874 125.017 187.183 117.587 187.092 111.563V110.191C186.996 104.167 183.114 97.0518 178.415 94.3092C173.716 91.5667 169.988 94.2193 170.084 100.25V101.621ZM174.303 102.059C174.26 99.2492 176.129 98.0522 178.473 99.4234C179.713 100.243 180.75 101.359 181.503 102.68C182.255 104.001 182.701 105.491 182.804 107.027C182.852 109.837 180.983 111.034 178.634 109.663C177.396 108.842 176.359 107.725 175.607 106.405C174.855 105.084 174.408 103.595 174.303 102.059Z" fill="black"/>
<path d="M88.644 181.97C94.0427 185.241 106.699 182.864 116.914 176.653L144.976 159.608C155.191 153.398 159.089 145.721 153.68 142.456C148.27 139.191 135.604 141.579 125.378 147.784L97.3695 164.807C87.1595 171.011 83.2506 178.716 88.644 181.97Z" fill="#F0F0F0"/>
<path d="M170.346 39.0703H170.373L174.992 36.2603H175.029C177.939 34.7092 181.827 35.1363 186.014 38.0025C194.429 43.7012 200.853 56.852 200.367 67.367C200.122 72.6104 198.231 76.2072 195.31 77.7921H195.284L190.659 80.6021H190.627C187.717 82.1588 183.824 81.7261 179.632 78.8655C171.222 73.1612 164.798 60.016 165.284 49.501C165.54 44.2519 167.457 40.6551 170.346 39.0703Z" fill="#37474F"/>
<path d="M190.894 80.456L195.3 77.7584H195.332C198.226 76.1679 200.138 72.5711 200.383 67.3333C200.597 62.6462 199.438 57.4365 197.345 52.5977L192.721 55.4077C194.819 60.2465 195.978 65.4562 195.759 70.1489C195.529 75.2631 193.692 78.8206 190.894 80.456Z" fill="#263238"/>
<path d="M179.654 78.8599C171.243 73.1556 164.819 60.0104 165.305 49.4954C165.791 38.9804 173.016 35.0745 181.41 40.7732C189.805 46.4719 196.25 59.6227 195.764 70.1377C195.278 80.6527 188.064 84.5586 179.654 78.8599Z" fill="#455A64"/>
<path d="M186.702 78.1181C191.663 78.371 192.47 72.4981 192.576 69.9691C193.004 60.6961 187.098 48.6131 179.68 43.5832C178.1 42.4181 176.261 41.7019 174.34 41.5038C169.385 41.2509 168.578 47.1238 168.466 49.6528C168.039 58.9258 173.94 71.0088 181.362 76.0668C182.943 77.2319 184.782 77.9481 186.702 78.1462V78.1181Z" fill="#FAFAFA"/>
<path d="M179.563 61.5559C179.621 61.5561 179.679 61.5447 179.734 61.5222C179.845 61.4841 179.942 61.4084 180.008 61.3068C180.075 61.2053 180.108 61.0835 180.102 60.9602V47.5677C180.102 47.4187 180.046 47.2757 179.946 47.1703C179.846 47.0649 179.71 47.0057 179.568 47.0057C179.427 47.0057 179.291 47.0649 179.191 47.1703C179.09 47.2757 179.034 47.4187 179.034 47.5677V59.3304L173.091 51.2938C173.003 51.1746 172.874 51.0969 172.732 51.0779C172.589 51.059 172.446 51.1002 172.332 51.1926C172.219 51.285 172.145 51.421 172.127 51.5707C172.109 51.7204 172.149 51.8714 172.236 51.9907L179.152 61.3367C179.2 61.4033 179.262 61.4575 179.334 61.4954C179.405 61.5334 179.483 61.554 179.563 61.5559Z" fill="#37474F"/>
<path d="M182.628 71.464C182.653 71.4691 182.678 71.4691 182.703 71.464C182.759 71.4457 182.807 71.4051 182.836 71.3506C182.865 71.2962 182.873 71.2321 182.858 71.1718L179.862 60.5556C179.845 60.4952 179.806 60.4444 179.753 60.4144C179.701 60.3843 179.639 60.3775 179.582 60.3954C179.524 60.4133 179.476 60.4544 179.447 60.5098C179.419 60.5651 179.412 60.6301 179.429 60.6905L182.42 71.3066C182.435 71.3521 182.463 71.3916 182.5 71.4197C182.538 71.4479 182.582 71.4633 182.628 71.464Z" fill="#FC6A43"/>
<path d="M179.734 58.302C178.74 57.6332 177.891 58.094 177.838 59.3304C177.841 60.0048 177.996 60.6688 178.289 61.2685C178.582 61.8681 179.006 62.3864 179.525 62.7811C180.513 63.4555 181.362 62.9947 181.421 61.7583C181.417 61.0833 181.262 60.419 180.968 59.8186C180.675 59.2183 180.252 58.6988 179.734 58.302Z" fill="#FC6A43"/>
<path d="M92.4995 178.682L99.0036 174.726L96.8356 173.411L90.3315 177.362L92.4995 178.682Z" fill="#FC6A43"/>
<path d="M105.513 170.775L112.023 166.818L109.849 165.503L103.345 169.454L105.513 170.775Z" fill="#FC6A43"/>
<path d="M102.838 169.162C102.838 172.467 100.638 176.468 97.9196 178.154C96.4724 179.036 95.1695 179.064 94.2724 178.401C93.9107 178.102 93.6136 177.725 93.4009 177.296C93.1882 176.867 93.0648 176.395 93.0388 175.912C93.2215 175.822 93.3997 175.722 93.5728 175.614C96.2909 173.967 98.491 169.949 98.491 166.622C98.4935 166.376 98.4792 166.13 98.4482 165.886C98.8556 165.659 99.3033 165.524 99.763 165.489C100.223 165.454 100.684 165.52 101.118 165.683C102.186 166.155 102.838 167.375 102.838 169.162Z" fill="#263238"/>
<path d="M103.281 162.373L103.19 162.317C101.823 161.553 99.9862 161.693 97.9196 162.941C93.7277 165.487 90.3261 171.68 90.3261 176.777C90.3261 179.34 91.1859 181.133 92.5743 181.964C93.9627 182.796 95.837 182.656 97.9143 181.402C102.106 178.857 105.502 172.658 105.502 167.56C105.508 164.998 104.664 163.205 103.281 162.373ZM97.941 178.143C96.4885 179.025 95.1855 179.053 94.2884 178.384C93.4981 177.822 93.0175 176.698 93.0175 175.153C93.0175 171.854 95.2229 167.847 97.941 166.161C99.1798 165.408 100.307 165.279 101.145 165.666C102.181 166.133 102.832 167.352 102.832 169.151C102.838 172.478 100.638 176.496 97.9196 178.154L97.941 178.143Z" fill="#37474F"/>
<path d="M101.396 165.818L101.337 165.784C100.451 165.284 99.2492 165.38 97.9196 166.183C95.2015 167.836 92.9961 171.854 92.9961 175.175C92.9961 176.861 93.5301 177.985 94.4539 178.547C95.3777 179.109 96.5899 178.997 97.9196 178.177C100.638 176.524 102.838 172.506 102.838 169.185C102.838 167.521 102.288 166.352 101.396 165.818ZM97.9196 176.974C96.7555 177.682 95.7088 177.704 94.9826 177.165C94.3525 176.698 93.9626 175.805 93.9626 174.568C94.0375 173.124 94.4347 171.718 95.1222 170.465C95.8097 169.213 96.7681 168.148 97.9196 167.358C98.2937 167.083 98.7235 166.904 99.175 166.835C99.6265 166.765 100.087 166.808 100.52 166.959C101.353 167.336 101.877 168.313 101.877 169.769C101.802 171.213 101.405 172.618 100.717 173.87C100.03 175.122 99.0713 176.185 97.9196 176.974Z" fill="#FC6A43"/>
<path d="M118.527 162.862L125.036 158.911L122.868 157.59L116.359 161.547L118.527 162.862Z" fill="#FC6A43"/>
<path d="M131.546 154.955L138.05 151.004L135.882 149.683L129.372 153.64L131.546 154.955Z" fill="#FC6A43"/>
<path d="M144.559 147.047L151.063 143.096L148.895 141.776L142.386 145.732L144.559 147.047Z" fill="#FC6A43"/>
<path d="M112.172 110.276C112.24 110.18 112.335 110.11 112.444 110.075C112.552 110.04 112.669 110.043 112.776 110.082C112.883 110.122 112.975 110.196 113.04 110.294C113.104 110.393 113.137 110.51 113.133 110.63C113.175 110.95 113.144 111.275 113.043 111.58C112.942 111.885 112.773 112.16 112.551 112.383C112.124 112.771 111.691 112.614 111.59 112.029C111.549 111.709 111.58 111.384 111.681 111.079C111.782 110.774 111.95 110.499 112.172 110.276Z" fill="#FC6A43"/>
<path d="M117.181 112.76L112.829 110.113L111.873 112.535L116.241 115.188L117.181 112.76Z" fill="#FC6A43"/>
<path d="M116.513 112.911C116.941 112.529 117.368 112.687 117.475 113.271C117.514 113.591 117.481 113.915 117.379 114.219C117.277 114.522 117.109 114.797 116.887 115.019C116.46 115.407 116.028 115.249 115.926 114.665C115.887 114.345 115.92 114.019 116.022 113.715C116.124 113.41 116.292 113.135 116.513 112.911Z" fill="#FC6A43"/>
<path d="M149.963 135.077C149.963 135.189 149.963 135.29 149.963 135.403C149.963 135.627 149.963 135.858 149.963 136.088C149.098 135.701 147.971 135.83 146.733 136.583C144.014 138.235 141.809 142.253 141.809 145.575C141.809 147.115 142.29 148.228 143.08 148.806C142.858 148.972 142.628 149.126 142.391 149.267L142.14 149.402L141.387 152.386L137.03 149.829C135.652 148.992 134.803 147.205 134.803 144.653C134.803 139.556 138.199 133.363 142.391 130.811C144.463 129.552 146.337 129.423 147.731 130.249L152.003 132.767L152.094 132.823L149.963 135.077Z" fill="#455A64"/>
<path d="M152.089 132.773L151.998 132.716C150.631 131.952 148.794 132.092 146.727 133.34C142.535 135.886 139.134 142.079 139.134 147.177C139.134 149.739 139.993 151.532 141.382 152.364C142.77 153.196 144.645 153.055 146.722 151.802C150.914 149.256 154.31 143.057 154.31 137.96C154.326 135.397 153.466 133.604 152.089 132.773ZM146.749 148.542C145.296 149.425 143.993 149.453 143.096 148.784C142.306 148.222 141.825 147.098 141.825 145.552C141.825 142.253 144.03 138.246 146.749 136.56C147.987 135.807 149.114 135.678 149.979 136.066C151.015 136.532 151.667 137.752 151.667 139.55C151.656 142.877 149.445 146.896 146.727 148.542H146.749Z" fill="#37474F"/>
<path d="M151.656 139.573C151.656 142.877 149.456 146.879 146.738 148.565C145.291 149.447 143.988 149.475 143.091 148.812C142.729 148.513 142.432 148.136 142.219 147.707C142.007 147.278 141.883 146.806 141.857 146.322C142.04 146.233 142.218 146.133 142.391 146.025C145.109 144.378 147.309 140.36 147.309 137.033C147.312 136.786 147.298 136.54 147.267 136.296C147.674 136.069 148.122 135.934 148.581 135.9C149.041 135.865 149.503 135.931 149.937 136.094C150.994 136.566 151.656 137.774 151.656 139.573Z" fill="#263238"/>
<path d="M150.204 136.218L150.145 136.178C149.258 135.684 148.052 135.774 146.727 136.583C144.009 138.235 141.804 142.248 141.804 145.575C141.804 147.261 142.338 148.385 143.262 148.947C144.185 149.509 145.398 149.391 146.727 148.57C149.445 146.924 151.645 142.905 151.645 139.578C151.656 137.92 151.122 136.757 150.204 136.218ZM146.727 147.368C145.558 148.081 144.511 148.104 143.79 147.564C143.155 147.098 142.77 146.204 142.77 144.968C142.845 143.523 143.242 142.118 143.93 140.865C144.617 139.612 145.576 138.548 146.727 137.757C147.72 137.15 148.628 137.044 149.322 137.358C150.155 137.735 150.679 138.713 150.679 140.168C150.605 141.611 150.208 143.015 149.521 144.266C148.835 145.517 147.877 146.579 146.727 147.368Z" fill="#FC6A43"/>
<path d="M142.386 141.253L154.668 133.79C156.094 132.919 151.464 127.833 148.019 127.49C146.123 127.249 144.2 127.44 142.38 128.052C142.38 128.052 145.002 131.587 144.554 133.593C144.105 135.599 142.386 141.253 142.386 141.253Z" fill="#FC6A43"/>
<path d="M125.036 120.161C125.036 120.161 142.84 129.614 143.609 130.182C144.378 130.749 143.609 137.342 142.386 141.253C141.163 145.165 139.283 151.178 138.53 152.864C137.777 154.55 136.795 155.179 134.99 156.275L122.174 164.07L104.824 166.296L97.9356 162.362L99.7298 150.498C99.7298 150.498 118.169 140.174 120.695 138.64C123.221 137.106 130.691 129.906 125.036 120.161Z" fill="#FC6A43"/>
<path opacity="0.2" d="M125.036 120.161C125.036 120.161 142.84 129.614 143.609 130.182C144.378 130.749 143.609 137.342 142.386 141.253C141.163 145.165 139.283 151.178 138.53 152.864C137.777 154.55 136.795 155.179 134.99 156.275L122.174 164.07L104.824 166.296L97.9356 162.362L99.7298 150.498C99.7298 150.498 118.169 140.174 120.695 138.64C123.221 137.106 130.691 129.906 125.036 120.161Z" fill="black"/>
<path d="M143.95 139C145.552 134.47 146.749 130.716 146.546 128.181C146.3 125.174 145.232 122.718 140.522 121.482C135.812 120.246 129.228 120.268 129.228 120.268L127.226 121.488C127.226 121.488 140.768 129.749 142.306 130.648C143.246 131.21 144.249 133.689 142.407 141.259L142.722 141.45C142.877 141.551 143.438 140.455 143.95 139Z" fill="#FC6A43"/>
<path opacity="0.3" d="M143.95 139C145.552 134.47 146.749 130.716 146.546 128.181C146.3 125.174 145.232 122.718 140.522 121.482C135.812 120.246 129.228 120.268 129.228 120.268L127.226 121.488C127.226 121.488 140.768 129.749 142.306 130.648C143.246 131.21 144.249 133.689 142.407 141.259L142.722 141.45C142.877 141.551 143.438 140.455 143.95 139Z" fill="white"/>
<path d="M133.692 125.433L135.882 124.118C135.882 124.118 135.753 116.132 132.56 114.193C129.367 112.254 118.527 113.575 118.527 113.575L116.359 114.89L133.692 125.433Z" fill="#FC6A43"/>
<path d="M126.59 116.019C125.549 116.654 125.549 117.677 126.59 118.307C127.174 118.62 127.82 118.783 128.475 118.783C129.13 118.783 129.776 118.62 130.36 118.307C131.396 117.677 131.396 116.649 130.36 116.019C129.775 115.709 129.13 115.547 128.475 115.547C127.82 115.547 127.175 115.709 126.59 116.019Z" fill="#F0F0F0"/>
<path d="M129.922 119.835C129.191 120.285 129.191 121.01 129.922 121.454C130.335 121.676 130.793 121.792 131.257 121.792C131.721 121.792 132.179 121.676 132.592 121.454C133.329 121.01 133.329 120.285 132.592 119.835C132.178 119.615 131.721 119.501 131.257 119.501C130.793 119.501 130.336 119.615 129.922 119.835Z" fill="#F0F0F0"/>
<path d="M121.533 115.002C120.796 115.446 120.796 116.171 121.533 116.621C121.947 116.841 122.404 116.955 122.868 116.955C123.332 116.955 123.789 116.841 124.203 116.621C124.94 116.171 124.94 115.446 124.203 115.002C123.79 114.78 123.332 114.664 122.868 114.664C122.404 114.664 121.946 114.78 121.533 115.002Z" fill="#F0F0F0"/>
<path d="M134.034 123.117C134.461 122.73 134.888 122.887 134.995 123.471C135.035 123.792 135.002 124.117 134.9 124.422C134.798 124.726 134.629 125.001 134.408 125.225C134.34 125.321 134.245 125.391 134.136 125.426C134.027 125.461 133.911 125.458 133.804 125.419C133.697 125.379 133.604 125.305 133.54 125.206C133.476 125.108 133.443 124.99 133.447 124.871C133.406 124.551 133.437 124.224 133.539 123.92C133.642 123.615 133.811 123.34 134.034 123.117Z" fill="#FC6A43"/>
<path d="M139.016 125.601L134.659 122.954L133.708 125.377L138.071 128.024L139.016 125.601Z" fill="#FC6A43"/>
<path d="M138.343 125.753C138.411 125.658 138.507 125.587 138.615 125.552C138.724 125.518 138.84 125.52 138.947 125.56C139.054 125.599 139.147 125.673 139.211 125.772C139.275 125.87 139.308 125.988 139.305 126.107C139.345 126.428 139.313 126.754 139.211 127.058C139.109 127.363 138.94 127.638 138.717 127.861C138.29 128.248 137.863 128.086 137.756 127.507C137.716 127.186 137.749 126.861 137.851 126.556C137.953 126.251 138.122 125.976 138.343 125.753Z" fill="#FC6A43"/>
<path d="M138.343 125.753C138.411 125.658 138.507 125.587 138.615 125.552C138.724 125.518 138.84 125.52 138.947 125.56C139.054 125.599 139.147 125.673 139.211 125.772C139.275 125.87 139.308 125.988 139.305 126.107C139.345 126.428 139.313 126.754 139.211 127.058C139.109 127.363 138.94 127.638 138.717 127.861C138.29 128.248 137.863 128.086 137.756 127.507C137.716 127.186 137.749 126.861 137.851 126.556C137.953 126.251 138.122 125.976 138.343 125.753Z" fill="black"/>
<path d="M101.156 164.666C101.156 164.778 101.156 164.88 101.156 164.992C101.156 165.217 101.156 165.447 101.156 165.678C100.291 165.29 99.1638 165.419 97.9516 166.172C95.2336 167.825 93.0281 171.843 93.0281 175.164C93.0281 176.704 93.5087 177.817 94.2991 178.396C94.0772 178.562 93.8472 178.716 93.6102 178.857L93.3592 178.991L92.6063 181.976L88.2488 179.419C86.8711 178.581 86.0221 176.794 86.0221 174.243C86.0221 169.145 89.4183 162.952 93.6102 160.401C95.6821 159.142 97.5565 159.012 98.9502 159.839L103.222 162.356L103.313 162.412L101.156 164.666Z" fill="#455A64"/>
<path d="M88.1581 155.747L84.906 167.611L91.4155 171.567L94.785 159.777L88.1581 155.747Z" fill="#FC6A43"/>
<path opacity="0.2" d="M88.1581 155.747L84.906 167.611L91.4155 171.567L94.785 159.777L88.1581 155.747Z" fill="black"/>
<path d="M88.1581 155.747C88.1581 155.747 91.848 159.046 94.785 159.777C98.6405 160.76 104.771 160.867 106.944 161.024C110.266 161.266 112.775 161.26 113.95 160.816C115.472 160.254 119.563 157.753 120.695 157.068C122.863 155.753 123.787 150.577 117.811 149.16C113.771 148.279 109.655 147.837 105.529 147.84L88.1581 155.747Z" fill="#FC6A43"/>
<path d="M124.956 154.23C124.77 154.718 124.645 155.23 124.582 155.753C124.41 156.296 124.37 156.875 124.465 157.439C124.872 158.147 125.512 158.673 126.264 158.917C126.806 159.044 127.367 159.052 127.912 158.94C128.456 158.829 128.974 158.601 129.431 158.27C130.536 157.574 131.369 156.731 132.939 156.258C134.061 156.008 135.118 155.504 136.037 154.78C136.907 154.044 138.071 152.01 136.405 151.538C134.739 151.066 131.118 152.729 127.818 152.881L124.956 154.23Z" fill="#37474F"/>
<path d="M124.956 152.06V154.657C125.057 154.949 125.233 155.205 125.464 155.399C125.694 155.592 125.971 155.715 126.264 155.753C126.532 155.794 126.806 155.763 127.06 155.663C127.46 155.502 127.807 155.222 128.057 154.856C128.308 154.491 128.451 154.056 128.47 153.606L128.566 152.06H124.956Z" fill="#FFA8A7"/>
<path d="M129.655 136.004C129.655 139.236 128.79 153.207 128.79 153.207C128.79 153.207 127.535 154.893 124.806 153.207L123.888 137.594L129.655 136.004Z" fill="#37474F"/>
<path d="M115.344 149.773L123.888 144.591C124.238 144.398 124.531 144.108 124.736 143.751C124.94 143.395 125.049 142.987 125.049 142.571C125.049 142.155 124.94 141.747 124.736 141.391C124.531 141.034 124.238 140.744 123.888 140.551L117.523 136.684C117.164 136.493 116.768 136.393 116.367 136.393C115.965 136.393 115.569 136.493 115.211 136.684L106.667 141.866C106.318 142.06 106.026 142.351 105.823 142.707C105.62 143.063 105.512 143.471 105.512 143.886C105.512 144.301 105.62 144.709 105.823 145.065C106.026 145.421 106.318 145.712 106.667 145.907L113.032 149.773C113.39 149.964 113.786 150.064 114.188 150.064C114.59 150.064 114.986 149.964 115.344 149.773Z" fill="#FC6A43"/>
<path d="M115.344 149.773L123.888 144.591C124.238 144.398 124.531 144.108 124.736 143.751C124.94 143.395 125.049 142.987 125.049 142.571C125.049 142.155 124.94 141.747 124.736 141.391C124.531 141.034 124.238 140.744 123.888 140.551L117.523 136.684C117.164 136.493 116.768 136.393 116.367 136.393C115.965 136.393 115.569 136.493 115.211 136.684L106.667 141.866C106.318 142.06 106.026 142.351 105.823 142.707C105.62 143.063 105.512 143.471 105.512 143.886C105.512 144.301 105.62 144.709 105.823 145.065C106.026 145.421 106.318 145.712 106.667 145.907L113.032 149.773C113.39 149.964 113.786 150.064 114.188 150.064C114.59 150.064 114.986 149.964 115.344 149.773Z" fill="white"/>
<path d="M106.667 143.271L113.032 147.137C113.39 147.328 113.786 147.428 114.188 147.428C114.59 147.428 114.986 147.328 115.344 147.137L123.888 141.956C124.027 141.906 124.149 141.811 124.234 141.685C124.32 141.559 124.366 141.408 124.366 141.253C124.366 141.098 124.32 140.947 124.234 140.821C124.149 140.695 124.027 140.6 123.888 140.551L117.523 136.684C117.164 136.493 116.768 136.393 116.367 136.393C115.965 136.393 115.569 136.493 115.211 136.684L106.667 141.866C106.527 141.916 106.406 142.01 106.32 142.136C106.234 142.262 106.188 142.413 106.188 142.568C106.188 142.723 106.234 142.874 106.32 143C106.406 143.126 106.527 143.221 106.667 143.271Z" fill="#FC6A43"/>
<path d="M111.873 108.876L110.789 113.58L106.133 113.878L107.136 107.359L111.873 108.876Z" fill="#FFA8A7"/>
<path d="M116.412 105.336C116.412 105.336 116.946 107.325 116.727 107.438C116.391 107.492 116.049 107.492 115.712 107.438L116.412 105.336Z" fill="#F28F8F"/>
<path d="M115.52 98.9851C116.268 99.9124 116.951 101.435 116.423 105.167C115.846 109.247 115.13 109.719 114.554 110.113C113.801 110.63 110.789 110.354 109.94 109.702C108.92 108.921 107.345 106.443 106.971 103.998C106.533 101.126 107.446 97.9398 109.454 97.3947C112.279 96.6247 114.885 98.1983 115.52 98.9851Z" fill="#FFA8A7"/>
<path d="M106.667 108.68C107.387 109.466 108.867 109.68 109.796 109.86C110.725 110.04 113.582 110.236 114.426 108.095C115.269 105.954 114.693 104.414 115.728 103.897C116.764 103.38 117.8 103.043 118.073 102.773C118.345 102.503 118.35 98.9795 115.568 97.153C112.786 95.3265 108.525 94.905 105.721 98.6086C103.596 101.469 104.466 106.263 106.667 108.68Z" fill="#455A64"/>
<path d="M109.47 109.888C110.191 109.955 112.471 109.579 113.16 108.59C113.849 107.601 114.126 105.83 114.228 104.903C114.237 104.538 114.365 104.187 114.589 103.908C114.813 103.629 115.121 103.439 115.461 103.369C116.15 103.138 117.672 102.352 117.672 102.352V101.913C118.163 101.881 118.655 101.881 119.146 101.913C119.466 101.975 119.29 102.475 118.479 102.908C117.667 103.341 115.44 104.178 115.098 104.465C114.757 104.751 114.596 105.96 114.324 107.247C114.052 108.534 113.208 110.456 109.47 109.888Z" fill="#37474F"/>
<path d="M115.878 115.21L118.548 113.597C118.804 112.782 118.393 112.372 117.667 112.423C116.941 112.473 117.165 111.731 116.722 111.523C116.14 111.242 115.809 111.4 115.547 111.27C115.285 111.141 115.173 110.815 114.831 110.776C113.304 110.624 112.263 112.917 112.263 112.917L115.878 115.21Z" fill="#F28F8F"/>
<path d="M97.754 135.847C97.754 135.847 109.55 129.693 111.606 128.698C113.662 127.703 116.887 126.259 118.601 126.259C119.271 126.317 119.899 126.628 120.369 127.134C120.838 127.64 121.119 128.307 121.159 129.013C121.181 130.097 121.123 131.181 120.983 132.256C117.742 133.375 114.43 134.252 111.072 134.88C106.165 135.779 97.754 135.847 97.754 135.847Z" fill="#37474F"/>
<path d="M99.0356 132.289C99.0356 134.841 98.806 137.493 99.8153 139.359C100.825 141.225 106.293 145.541 111.44 144.636C114.805 144.041 124.79 139.202 124.79 139.202C124.79 139.202 129.634 137.33 129.655 135.998C129.687 134.037 129.559 131.272 125.335 131.39C121.485 131.497 110.127 133.992 110.127 133.992L99.0356 132.289Z" fill="#455A64"/>
<path d="M102.33 112.074C104.157 110.068 105.39 109.899 106.266 110.146C108.279 110.753 110.227 111.574 112.081 112.597C112.081 112.597 111.376 119.779 114.714 121.847V133.042C114.714 133.042 114.612 134.256 113.16 135.465C111.878 136.527 108.979 137.6 105.518 137.297C101.407 136.937 99.0357 132.289 99.0357 132.289C99.0357 132.289 98.9289 123.134 99.5109 119.498C100.194 115.255 101.7 112.771 102.33 112.074Z" fill="#455A64"/>
<path d="M114.714 122.392C114.714 122.392 112.695 120.706 112.081 118.515C112.081 118.515 112.322 121.954 114.714 123.696V122.392Z" fill="#37474F"/>
<path d="M133.399 127.675C134.357 127.717 135.3 127.409 136.069 126.804C136.069 126.804 136.998 124.905 138.14 125.068C138.14 125.068 138.343 124.258 137.873 123.994C137.404 123.73 137.201 123.803 137.008 123.522C136.816 123.241 136.795 122.718 135.94 122.718C135.588 122.718 135.636 122.454 134.782 122.347C133.927 122.241 133.083 124.314 132.459 124.314L133.399 127.675Z" fill="#FFA8A7"/>
<path d="M112.081 112.597C115.013 113.075 116.076 113.991 117.144 115.03C118.212 116.07 124.748 122.971 124.748 122.971L132.662 124.168C133.078 124.523 133.383 125.001 133.537 125.54C133.858 126.518 133.569 127.585 133.265 127.838C133.265 127.838 125.415 128.333 123.872 128.024C122.329 127.715 114.687 122.376 114.687 122.376C113.957 121.796 113.344 121.068 112.886 120.235C112.427 119.402 112.132 118.481 112.017 117.526C111.521 114.137 112.081 112.597 112.081 112.597Z" fill="#455A64"/>
<path d="M105.043 142.282L92.916 157.86C92.7814 157.878 92.6459 157.888 92.5102 157.888C92.0293 157.896 91.5541 157.779 91.1271 157.546L80.885 151.319L80.1908 150.897C79.8116 150.667 79.4966 149.722 79.4966 148.79V146.165C79.4962 143.469 80.17 140.82 81.4505 138.485C82.7309 136.15 84.5728 134.211 86.791 132.863L99.0196 125.433L112.033 133.34L105.043 142.282Z" fill="#FC6A43"/>
<g opacity="0.1">
<path opacity="0.1" d="M105.043 142.282L92.916 157.86C92.7814 157.878 92.6459 157.888 92.5102 157.888C92.0293 157.896 91.5541 157.779 91.1271 157.546L80.885 151.319L80.1908 150.897C79.8116 150.667 79.4966 149.722 79.4966 148.79V146.165C79.4962 143.469 80.17 140.82 81.4505 138.485C82.7309 136.15 84.5728 134.211 86.791 132.863L99.0196 125.433L112.033 133.34L105.043 142.282Z" fill="black"/>
</g>
<path d="M100.862 147.654L112.017 133.346L99.0036 125.438L86.7803 132.863C85.1992 133.826 83.8043 135.094 82.6685 136.6L100.862 147.654Z" fill="#FC6A43"/>
<path d="M112.017 144.833C112.017 145.766 111.707 146.71 111.323 146.941L110.629 147.362L93.8826 157.54C93.5779 157.713 93.2441 157.822 92.9 157.86C92.7654 157.878 92.6298 157.888 92.4942 157.888V154.072C92.4937 151.376 93.1682 148.726 94.4496 146.391C95.7311 144.056 97.5744 142.117 99.7939 140.77L101.177 139.932L112.017 133.34V144.833Z" fill="#FC6A43"/>
<g opacity="0.2">
<path opacity="0.2" d="M112.017 144.833C112.017 145.766 111.707 146.71 111.323 146.941L110.629 147.362L93.8826 157.54C93.5779 157.713 93.2441 157.822 92.9 157.86C92.7654 157.878 92.6298 157.888 92.4942 157.888V154.072C92.4937 151.376 93.1682 148.726 94.4496 146.391C95.7311 144.056 97.5744 142.117 99.7939 140.77L101.177 139.932L112.017 133.34V144.833Z" fill="black"/>
</g>
<path d="M115.611 164.11L122.163 164.087L131.54 158.388L122.355 165.374L115.44 165.475L115.611 164.11Z" fill="#E0E0E0"/>
<path d="M99.7031 173.922C99.7031 173.922 111.515 169.235 112.519 168.684C113.697 167.924 114.815 167.066 115.862 166.116C116.076 165.819 116.176 165.448 116.143 165.077C116.111 164.706 115.948 164.361 115.686 164.11C115.686 164.11 110.88 163.879 109.646 164.278C108.957 164.497 97.8395 168.252 97.8395 168.252L99.7031 173.922Z" fill="#E0E0E0"/>
<path d="M99.1745 168.684C98.1973 167.802 97.2147 168.167 96.9744 169.494C96.8826 170.225 96.9562 170.97 97.1891 171.666C97.422 172.362 97.8076 172.991 98.3147 173.501C99.292 174.383 100.275 174.023 100.515 172.691C100.606 171.96 100.532 171.216 100.3 170.519C100.067 169.823 99.6812 169.195 99.1745 168.684Z" fill="#455A64"/>
</svg>
