<svg width="267" height="281" viewBox="0 0 267 281" fill="none" xmlns="http://www.w3.org/2000/svg">
<path d="M267 214.909H0V215.049H267V214.909Z" fill="#EBEBEB"/>
<path d="M240.247 223.951H222.561V224.092H240.247V223.951Z" fill="#EBEBEB"/>
<path d="M176.871 225.48H172.231V225.62H176.871V225.48Z" fill="#EBEBEB"/>
<path d="M222.027 218.736H211.779V218.877H222.027V218.736Z" fill="#EBEBEB"/>
<path d="M51.0771 219.68H28.0136V219.821H51.0771V219.68Z" fill="#EBEBEB"/>
<path d="M59.2153 219.68H55.835V219.821H59.2153V219.68Z" fill="#EBEBEB"/>
<path d="M120.23 222.052H70.205V222.192H120.23V222.052Z" fill="#EBEBEB"/>
<path d="M126.558 189.844H23.4479C22.6402 189.842 21.866 189.503 21.2953 188.902C20.7247 188.3 20.4041 187.485 20.4041 186.635V34.091C20.4112 33.2457 20.7348 32.4375 21.3047 31.842C21.8746 31.2464 22.6448 30.9115 23.4479 30.91H126.558C127.367 30.91 128.142 31.2481 128.714 31.8499C129.286 32.4517 129.607 33.268 129.607 34.1191V186.635C129.607 187.486 129.286 188.302 128.714 188.904C128.142 189.506 127.367 189.844 126.558 189.844ZM23.4479 31.0224C22.6756 31.0239 21.9354 31.3479 21.3897 31.9232C20.8441 32.4985 20.5376 33.2781 20.5376 34.091V186.635C20.5376 187.447 20.8441 188.227 21.3897 188.802C21.9354 189.378 22.6756 189.702 23.4479 189.703H126.558C127.331 189.702 128.072 189.378 128.618 188.803C129.165 188.228 129.472 187.448 129.474 186.635V34.091C129.472 33.2776 129.165 32.498 128.618 31.9228C128.072 31.3477 127.331 31.0239 126.558 31.0224H23.4479Z" fill="#EBEBEB"/>
<path d="M242.068 189.844H138.952C138.144 189.842 137.369 189.504 136.798 188.902C136.226 188.301 135.904 187.485 135.903 186.635V34.091C135.911 33.2452 136.236 32.437 136.807 31.8416C137.378 31.2462 138.148 30.9115 138.952 30.91H242.068C242.87 30.913 243.639 31.2485 244.207 31.8439C244.776 32.4394 245.099 33.2467 245.106 34.091V186.635C245.106 187.484 244.786 188.298 244.217 188.9C243.647 189.501 242.874 189.841 242.068 189.844ZM138.952 31.0224C138.179 31.0239 137.439 31.3477 136.892 31.9228C136.346 32.498 136.038 33.2776 136.036 34.091V186.635C136.038 187.448 136.346 188.228 136.892 188.803C137.439 189.378 138.179 189.702 138.952 189.703H242.068C242.84 189.702 243.581 189.378 244.128 188.803C244.674 188.228 244.982 187.448 244.983 186.635V34.091C244.982 33.2776 244.674 32.498 244.128 31.9228C243.581 31.3477 242.84 31.0239 242.068 31.0224H138.952Z" fill="#EBEBEB"/>
<path d="M55.6375 89.1782C55.6375 89.1782 55.002 84.862 58.0191 82.052C61.0362 79.242 60.7639 77.6123 59.9041 77.3931C59.0444 77.1739 58.2487 79.9614 56.9297 80.7257C56.9297 80.7257 56.887 76.758 58.2274 75.2968C59.5677 73.8356 60.2779 70.0702 59.0017 70.0028C57.7254 69.9353 57.5866 72.2508 57.3249 73.8749C57.0632 75.4991 55.6375 77.8089 55.6375 77.8089C55.6375 77.8089 55.3544 74.2627 54.4894 72.7959C53.6243 71.3291 55.9365 67.9964 55.0234 66.5352C54.1102 65.074 52.5403 67.8559 52.6738 70.9863C52.8073 74.1166 54.8098 77.4605 54.3292 80.7313C54.3292 80.7313 53.4534 78.4384 52.6631 78.2304C51.8728 78.0225 51.0611 76.4995 50.5591 75.9375C50.0572 75.3755 49.3683 77.32 50.5591 79.1353C51.7499 80.9505 54.7884 85.7837 54.3292 89.6953L55.6375 89.1782Z" fill="#E6E6E6"/>
<path d="M57.4317 87.2L58.4196 93.7079C58.4914 94.1805 58.465 94.6639 58.3421 95.1247C58.2193 95.5855 58.0029 96.0128 57.708 96.3772C57.4131 96.7415 57.0466 97.0342 56.6339 97.2351C56.2211 97.436 55.7718 97.5402 55.3171 97.5407H54.2491C53.7941 97.5401 53.3447 97.4358 52.9317 97.235C52.5187 97.0341 52.152 96.7416 51.8567 96.3774C51.5613 96.0132 51.3445 95.586 51.221 95.1251C51.0975 94.6643 51.0702 94.1808 51.1412 93.7079L52.1291 87.2H57.4317Z" fill="#E6E6E6"/>
<path d="M42.5331 98.9064L112.188 98.9064V95.141L42.5331 95.141V98.9064Z" fill="#E0E0E0"/>
<path d="M105.908 95.1354H108.979V81.254H105.908V95.1354Z" fill="#EBEBEB"/>
<path d="M91.0684 95.1354H94.1389V81.254H91.0684V95.1354Z" fill="#EBEBEB"/>
<path d="M71.988 94.5858L75.0139 95.1348L77.2544 81.4551L74.2285 80.9062L71.988 94.5858Z" fill="#EBEBEB"/>
<path d="M102.106 95.141H105.177V83.0861H102.106V95.141Z" fill="#EBEBEB"/>
<path d="M95.052 95.141H98.1225V83.0861H95.052V95.141Z" fill="#EBEBEB"/>
<path d="M77.2484 95.141H80.3189V83.0861H77.2484V95.141Z" fill="#EBEBEB"/>
<path d="M84.562 94.4287L87.5593 95.1298L90.0444 83.362L87.047 82.6609L84.562 94.4287Z" fill="#EBEBEB"/>
<path d="M99.4575 95.141H100.99V80.5683H99.4575V95.141Z" fill="#EBEBEB"/>
<path d="M81.2054 95.141H82.738V80.5683H81.2054V95.141Z" fill="#EBEBEB"/>
<path d="M112.183 123.252H42.5278V127.018H112.183V123.252Z" fill="#E0E0E0"/>
<path d="M48.8076 109.371H45.7371V123.252H48.8076V109.371Z" fill="#EBEBEB"/>
<path d="M63.6421 109.371H60.5716V123.252H63.6421V109.371Z" fill="#EBEBEB"/>
<path d="M80.4915 109.022L77.4657 109.571L79.7062 123.25L82.732 122.702L80.4915 109.022Z" fill="#EBEBEB"/>
<path d="M52.6097 111.203H49.5392V123.258H52.6097V111.203Z" fill="#EBEBEB"/>
<path d="M59.6638 111.203H56.5933V123.258H59.6638V111.203Z" fill="#EBEBEB"/>
<path d="M77.4674 111.203H74.3969V123.258H77.4674V111.203Z" fill="#EBEBEB"/>
<path d="M67.6804 110.782L64.683 111.483L67.168 123.251L70.1654 122.55L67.6804 110.782Z" fill="#EBEBEB"/>
<path d="M55.2583 108.68H53.7257V123.252H55.2583V108.68Z" fill="#EBEBEB"/>
<path d="M73.5104 108.68H71.9778V123.252H73.5104V108.68Z" fill="#EBEBEB"/>
<path d="M105.502 112.265H90.5504V123.129H105.502V112.265Z" fill="#EBEBEB"/>
<path d="M226.357 72.6554H141.28C140.655 72.6554 140.148 73.1888 140.148 73.8468V75.1226C140.148 75.7806 140.655 76.314 141.28 76.314H226.357C226.982 76.314 227.489 75.7806 227.489 75.1226V73.8468C227.489 73.1888 226.982 72.6554 226.357 72.6554Z" fill="#E0E0E0"/>
<path d="M222.304 75.5665H145.339V147.446H222.304V75.5665Z" fill="#E6E6E6"/>
<path d="M220.28 77.5392H147.267V145.513H220.28V77.5392Z" fill="#F0F0F0"/>
<path d="M164.403 77.5392L147.267 145.367V113.496L156.312 77.5392H164.403Z" fill="white"/>
<path d="M170.469 77.5392L153.183 145.513H150.422L167.708 77.5392H170.469Z" fill="white"/>
<path d="M217.621 77.5392L200.335 145.513H197.58L214.866 77.5392H217.621Z" fill="white"/>
<path d="M220.28 120.431V131.294L216.783 145.513H214.022L220.28 120.431Z" fill="white"/>
<path d="M172.728 76.3196H171.499V147.036H172.728V76.3196Z" fill="#E6E6E6"/>
<path d="M196.565 76.3196H195.337V147.036H196.565V76.3196Z" fill="#E6E6E6"/>
<path d="M209.761 73.8243C209.761 73.8243 211.528 98.1477 221.717 110.54C221.717 110.54 214.3 141.832 214.305 152.746L228.087 150.054L223.116 110.714L225.492 73.8187L209.761 73.8243Z" fill="#E0E0E0"/>
<path d="M157.882 73.8243C157.882 73.8243 156.11 98.1477 145.926 110.54C145.926 110.54 153.343 141.832 153.338 152.746L139.556 150.054L144.522 110.714L142.145 73.8187L157.882 73.8243Z" fill="#E0E0E0"/>
<path d="M133.5 240.289C190.682 240.289 237.037 237.44 237.037 233.927C237.037 230.413 190.682 227.565 133.5 227.565C76.3179 227.565 29.9627 230.413 29.9627 233.927C29.9627 237.44 76.3179 240.289 133.5 240.289Z" fill="#F5F5F5"/>
<path d="M196.24 59.9036H126.996C124.392 59.9036 122.281 62.1253 122.281 64.866V203.871C122.281 206.612 124.392 208.834 126.996 208.834H196.24C198.844 208.834 200.955 206.612 200.955 203.871V64.866C200.955 62.1253 198.844 59.9036 196.24 59.9036Z" fill="#263238"/>
<path d="M198.301 64.8885V203.573C198.301 203.842 198.25 204.108 198.152 204.356C198.053 204.604 197.909 204.829 197.727 205.018C197.545 205.207 197.329 205.356 197.092 205.456C196.855 205.556 196.602 205.606 196.346 205.602H126.686C126.454 205.605 126.224 205.559 126.009 205.466C125.795 205.374 125.6 205.236 125.437 205.063C125.274 204.889 125.146 204.683 125.061 204.456C124.975 204.229 124.934 203.986 124.94 203.742V64.7256C124.927 64.2936 125.077 63.8739 125.357 63.558C125.637 63.242 126.025 63.0557 126.435 63.0396H143.849C144.093 63.0438 144.33 63.1248 144.53 63.272C144.73 63.4192 144.883 63.626 144.97 63.8657L145.691 65.7315C145.781 65.9687 145.935 66.1727 146.135 66.3177C146.334 66.4627 146.57 66.5423 146.813 66.5464H176.466C176.707 66.5447 176.943 66.4673 177.143 66.3242C177.342 66.1811 177.497 65.9787 177.587 65.7428L178.308 63.8657C178.396 63.6268 178.55 63.4209 178.75 63.2739C178.949 63.1269 179.186 63.0453 179.429 63.0396H196.592C197.05 63.0527 197.484 63.2533 197.803 63.5987C198.123 63.944 198.301 64.4068 198.301 64.8885Z" fill="#FC6A43"/>
<path opacity="0.6" d="M198.306 71.6831H124.94V197.796H198.306V71.6831Z" fill="white"/>
<path opacity="0.6" d="M133.019 68.6089H133.927V67.3388H133.019V68.6089Z" fill="white"/>
<path opacity="0.6" d="M131.546 68.6089H132.453V66.9117H131.546V68.6089Z" fill="white"/>
<path opacity="0.6" d="M130.066 68.6089H130.974V66.4902H130.066V68.6089Z" fill="white"/>
<path opacity="0.6" d="M128.593 68.6089H129.5V66.063H128.593V68.6089Z" fill="white"/>
<path opacity="0.6" d="M190.003 66.8723H189.463V68.1424H190.003V66.8723Z" fill="white"/>
<path opacity="0.6" d="M190.371 68.6089H194.648V66.4115H190.371V68.6089Z" fill="white"/>
<path opacity="0.6" d="M197.377 132.772H125.864V148.008H197.377V132.772Z" fill="white"/>
<path opacity="0.6" d="M160.601 64.2647C161.158 64.2647 161.61 63.7892 161.61 63.2026C161.61 62.6159 161.158 62.1404 160.601 62.1404C160.043 62.1404 159.591 62.6159 159.591 63.2026C159.591 63.7892 160.043 64.2647 160.601 64.2647Z" fill="white"/>
<path opacity="0.6" d="M163.644 63.2025C163.644 63.3372 163.606 63.4689 163.535 63.5809C163.464 63.6928 163.363 63.78 163.244 63.8313C163.126 63.8826 162.996 63.8957 162.87 63.869C162.745 63.8423 162.63 63.777 162.539 63.6813C162.449 63.5857 162.388 63.464 162.364 63.3317C162.339 63.1994 162.353 63.0625 162.403 62.9384C162.452 62.8142 162.536 62.7084 162.643 62.6343C162.75 62.5603 162.875 62.5214 163.004 62.5225C163.174 62.524 163.337 62.5963 163.457 62.7236C163.577 62.851 163.644 63.0231 163.644 63.2025Z" fill="white"/>
<path opacity="0.6" d="M197.377 171.826H125.864V180.689H197.377V171.826Z" fill="white"/>
<path d="M162.005 174.557V178.098H161.53V174.995H160.771V174.557H162.005Z" fill="#263238"/>
<path d="M180.652 142.703V143.422H180.262V142.703C179.728 142.69 179.211 142.493 178.794 142.141L179.018 141.646C179.37 141.952 179.806 142.132 180.262 142.158V140.674C179.6 140.5 178.895 140.281 178.895 139.41C178.895 138.78 179.323 138.229 180.262 138.151V137.42H180.652V138.14C181.089 138.154 181.515 138.29 181.886 138.533L181.683 139.044C181.374 138.833 181.019 138.709 180.652 138.685V140.168C181.33 140.348 182.062 140.562 182.062 141.433C182.062 142.074 181.613 142.619 180.652 142.703ZM180.262 140.073V138.696C179.728 138.769 179.488 139.056 179.488 139.393C179.488 139.73 179.83 139.938 180.262 140.073ZM181.464 141.478C181.464 141.068 181.101 140.916 180.652 140.781V142.152C181.218 142.096 181.464 141.821 181.464 141.478Z" fill="#263238"/>
<path d="M183.856 138.19V142.686H183.258V138.752H182.297V138.19H183.856Z" fill="#263238"/>
<path d="M184.764 142.259C184.763 142.202 184.772 142.144 184.792 142.091C184.812 142.037 184.842 141.989 184.881 141.948C184.919 141.907 184.965 141.874 185.016 141.853C185.066 141.831 185.121 141.82 185.175 141.821C185.286 141.821 185.392 141.867 185.47 141.949C185.548 142.031 185.592 142.143 185.592 142.259C185.592 142.375 185.548 142.487 185.47 142.569C185.392 142.651 185.286 142.697 185.175 142.697C185.121 142.697 185.067 142.686 185.017 142.664C184.966 142.642 184.921 142.61 184.883 142.569C184.844 142.528 184.814 142.48 184.794 142.426C184.773 142.373 184.763 142.316 184.764 142.259Z" fill="#263238"/>
<path d="M189.319 140.371C189.319 141.894 188.502 142.709 187.311 142.709C186.94 142.724 186.571 142.635 186.243 142.45L186.473 141.95C186.72 142.101 187.004 142.175 187.29 142.164C188.155 142.164 188.7 141.602 188.7 140.478V140.315C188.558 140.513 188.371 140.671 188.157 140.774C187.942 140.877 187.707 140.922 187.471 140.905C187.29 140.925 187.107 140.905 186.933 140.847C186.759 140.788 186.599 140.692 186.463 140.564C186.327 140.437 186.217 140.281 186.142 140.106C186.066 139.932 186.026 139.742 186.024 139.55C186.028 139.352 186.07 139.156 186.149 138.975C186.228 138.794 186.341 138.633 186.482 138.5C186.623 138.368 186.788 138.268 186.968 138.206C187.147 138.143 187.337 138.121 187.525 138.14C188.678 138.14 189.319 138.943 189.319 140.371ZM188.577 139.522C188.577 139.061 188.224 138.657 187.562 138.657C187.445 138.642 187.327 138.654 187.214 138.692C187.102 138.729 186.998 138.791 186.91 138.873C186.822 138.955 186.751 139.056 186.703 139.169C186.654 139.281 186.628 139.404 186.628 139.528C186.628 140.05 187.001 140.388 187.594 140.388C187.713 140.402 187.834 140.391 187.949 140.355C188.064 140.319 188.171 140.259 188.263 140.178C188.355 140.097 188.43 139.997 188.484 139.884C188.538 139.771 188.57 139.648 188.577 139.522Z" fill="#263238"/>
<path d="M193.062 140.371C193.062 141.894 192.245 142.709 191.055 142.709C190.683 142.724 190.314 142.635 189.987 142.45L190.216 141.95C190.464 142.102 190.747 142.176 191.033 142.163C191.898 142.163 192.443 141.601 192.443 140.477V140.314C192.301 140.513 192.115 140.671 191.9 140.774C191.686 140.877 191.45 140.922 191.215 140.905C191.033 140.925 190.85 140.905 190.676 140.847C190.503 140.788 190.343 140.692 190.206 140.564C190.07 140.437 189.961 140.281 189.885 140.106C189.81 139.931 189.77 139.742 189.768 139.55C189.77 139.352 189.812 139.156 189.89 138.975C189.969 138.795 190.082 138.633 190.222 138.501C190.362 138.368 190.527 138.268 190.707 138.206C190.886 138.143 191.075 138.121 191.263 138.14C192.422 138.14 193.062 138.943 193.062 140.371ZM192.32 139.522C192.32 139.061 191.968 138.657 191.306 138.657C191.189 138.642 191.07 138.654 190.958 138.691C190.845 138.729 190.742 138.79 190.653 138.873C190.565 138.955 190.495 139.056 190.446 139.168C190.397 139.281 190.372 139.404 190.371 139.528C190.371 140.05 190.739 140.388 191.338 140.388C191.457 140.402 191.577 140.391 191.692 140.355C191.807 140.319 191.914 140.259 192.006 140.178C192.098 140.097 192.173 139.997 192.227 139.884C192.281 139.771 192.313 139.648 192.32 139.522Z" fill="#263238"/>
<path d="M131.391 144.552V144.805H129.986V144.608L130.782 143.799C130.99 143.585 131.028 143.456 131.028 143.327C131.028 143.113 130.889 142.984 130.611 142.984C130.517 142.979 130.424 142.996 130.338 143.035C130.252 143.074 130.175 143.134 130.114 143.209L129.922 143.035C130.012 142.93 130.123 142.849 130.247 142.795C130.371 142.742 130.504 142.718 130.638 142.725C131.044 142.725 131.311 142.945 131.311 143.287C131.306 143.414 131.274 143.538 131.218 143.65C131.161 143.762 131.082 143.859 130.985 143.934L130.387 144.541L131.391 144.552Z" fill="#263238"/>
<path d="M131.61 143.776C131.61 143.108 131.951 142.725 132.411 142.725C132.87 142.725 133.206 143.108 133.206 143.776C133.206 144.445 132.865 144.827 132.411 144.827C131.957 144.827 131.61 144.434 131.61 143.776ZM132.929 143.776C132.929 143.248 132.715 142.984 132.395 142.984C132.074 142.984 131.861 143.248 131.861 143.776C131.861 144.305 132.074 144.569 132.395 144.569C132.715 144.569 132.929 144.305 132.929 143.776Z" fill="#263238"/>
<path d="M133.441 143.31C133.433 143.241 133.439 143.17 133.458 143.103C133.477 143.037 133.509 142.975 133.553 142.922C133.596 142.869 133.649 142.826 133.709 142.796C133.769 142.766 133.834 142.75 133.9 142.748C134.167 142.748 134.349 142.973 134.349 143.31C134.349 143.647 134.167 143.872 133.9 143.872C133.834 143.87 133.769 143.854 133.709 143.824C133.649 143.794 133.596 143.751 133.553 143.698C133.509 143.645 133.477 143.583 133.458 143.516C133.439 143.45 133.433 143.379 133.441 143.31ZM134.173 143.31C134.173 143.063 134.071 142.917 133.9 142.917C133.73 142.917 133.623 143.063 133.623 143.31C133.623 143.557 133.73 143.703 133.9 143.703C134.071 143.703 134.173 143.54 134.173 143.31ZM135.081 142.748H135.294L133.959 144.805H133.74L135.081 142.748ZM134.685 144.26C134.7 144.169 134.739 144.084 134.797 144.015C134.856 143.946 134.932 143.897 135.017 143.872C135.102 143.848 135.191 143.849 135.275 143.877C135.359 143.905 135.434 143.957 135.49 144.028C135.547 144.098 135.583 144.185 135.594 144.276C135.605 144.368 135.591 144.461 135.554 144.545C135.516 144.628 135.457 144.699 135.383 144.748C135.308 144.797 135.222 144.823 135.134 144.822C134.867 144.822 134.685 144.597 134.685 144.26ZM135.412 144.26C135.412 144.018 135.305 143.866 135.134 143.866C134.963 143.866 134.862 144.012 134.862 144.26C134.862 144.507 134.969 144.659 135.134 144.659C135.3 144.659 135.412 144.507 135.412 144.26Z" fill="#263238"/>
<path d="M135.876 144.029C135.873 143.869 135.916 143.71 135.998 143.575C136.081 143.44 136.2 143.334 136.34 143.27C136.48 143.206 136.635 143.187 136.785 143.217C136.935 143.246 137.074 143.322 137.183 143.434C137.292 143.547 137.367 143.691 137.398 143.848C137.429 144.006 137.415 144.169 137.357 144.318C137.299 144.467 137.201 144.594 137.074 144.684C136.947 144.774 136.798 144.822 136.645 144.822C136.544 144.826 136.444 144.809 136.35 144.771C136.255 144.733 136.17 144.675 136.097 144.601C136.025 144.527 135.969 144.438 135.931 144.339C135.892 144.241 135.874 144.135 135.876 144.029ZM137.142 144.029C137.149 143.957 137.141 143.884 137.119 143.815C137.097 143.746 137.061 143.683 137.014 143.63C136.967 143.577 136.91 143.535 136.846 143.507C136.783 143.479 136.714 143.465 136.645 143.467C136.527 143.496 136.422 143.565 136.346 143.665C136.271 143.764 136.23 143.888 136.23 144.015C136.23 144.143 136.271 144.266 136.346 144.366C136.422 144.465 136.527 144.535 136.645 144.563C136.712 144.566 136.779 144.553 136.841 144.527C136.903 144.501 136.959 144.462 137.005 144.412C137.052 144.361 137.088 144.301 137.112 144.236C137.135 144.17 137.146 144.099 137.142 144.029Z" fill="#263238"/>
<path d="M138.087 143.113V143.248H138.514V143.479H138.092V144.805H137.825V143.479H137.569V143.248H137.825V143.108C137.82 143.04 137.83 142.971 137.852 142.908C137.875 142.844 137.911 142.786 137.957 142.738C138.004 142.691 138.059 142.654 138.121 142.632C138.182 142.609 138.247 142.601 138.311 142.608C138.419 142.602 138.526 142.634 138.616 142.697L138.536 142.911C138.475 142.865 138.402 142.839 138.327 142.838C138.167 142.838 138.087 142.933 138.087 143.113Z" fill="#263238"/>
<path d="M139.07 143.113V143.248H139.502V143.479H139.075V144.805H138.808V143.479H138.557V143.248H138.808V143.108C138.803 143.039 138.812 142.97 138.835 142.906C138.858 142.842 138.895 142.784 138.942 142.736C138.989 142.688 139.045 142.652 139.107 142.63C139.169 142.607 139.234 142.6 139.299 142.608C139.406 142.603 139.51 142.635 139.598 142.697L139.518 142.911C139.458 142.863 139.385 142.837 139.31 142.838C139.155 142.838 139.07 142.933 139.07 143.113Z" fill="#263238"/>
<path d="M130.114 138.252C130.112 138.008 130.157 137.766 130.247 137.541C130.336 137.315 130.469 137.112 130.636 136.942C130.803 136.773 131.001 136.641 131.218 136.555C131.435 136.469 131.666 136.431 131.898 136.442C132.137 136.433 132.374 136.479 132.595 136.576C132.815 136.673 133.013 136.819 133.174 137.004L132.865 137.325C132.744 137.188 132.598 137.08 132.435 137.008C132.272 136.935 132.096 136.899 131.919 136.903C131.704 136.903 131.492 136.959 131.302 137.066C131.113 137.173 130.951 137.329 130.833 137.518C130.715 137.707 130.643 137.925 130.624 138.15C130.606 138.376 130.641 138.603 130.726 138.811C130.812 139.019 130.945 139.201 131.114 139.342C131.283 139.482 131.483 139.576 131.695 139.614C131.907 139.653 132.125 139.636 132.329 139.564C132.534 139.492 132.717 139.367 132.865 139.202L133.174 139.522C133.011 139.707 132.812 139.852 132.591 139.949C132.37 140.046 132.132 140.092 131.893 140.084C131.66 140.095 131.427 140.055 131.209 139.968C130.991 139.88 130.793 139.746 130.626 139.574C130.459 139.402 130.328 139.196 130.24 138.969C130.152 138.741 130.109 138.497 130.114 138.252Z" fill="#263238"/>
<path d="M133.457 138.657C133.453 138.38 133.527 138.108 133.67 137.876C133.813 137.644 134.018 137.462 134.26 137.353C134.501 137.244 134.768 137.213 135.027 137.264C135.285 137.316 135.523 137.447 135.71 137.641C135.898 137.835 136.026 138.083 136.079 138.354C136.132 138.625 136.107 138.906 136.007 139.162C135.907 139.418 135.738 139.637 135.52 139.791C135.301 139.945 135.044 140.028 134.782 140.028C134.607 140.036 134.433 140.007 134.27 139.942C134.107 139.876 133.959 139.776 133.835 139.647C133.71 139.518 133.613 139.364 133.548 139.193C133.483 139.023 133.452 138.84 133.457 138.657ZM135.636 138.657C135.629 138.479 135.572 138.308 135.473 138.165C135.374 138.021 135.237 137.911 135.079 137.849C134.921 137.786 134.749 137.774 134.585 137.814C134.42 137.854 134.271 137.943 134.155 138.072C134.038 138.2 133.96 138.362 133.931 138.537C133.901 138.712 133.921 138.892 133.988 139.055C134.055 139.218 134.165 139.356 134.307 139.453C134.448 139.55 134.613 139.602 134.782 139.601C134.898 139.603 135.014 139.58 135.122 139.533C135.229 139.486 135.326 139.416 135.407 139.327C135.487 139.238 135.549 139.133 135.589 139.017C135.628 138.902 135.644 138.779 135.636 138.657Z" fill="#263238"/>
<path d="M140.976 138.454V140H140.511V138.51C140.511 137.982 140.271 137.724 139.855 137.724C139.746 137.719 139.637 137.74 139.537 137.785C139.436 137.829 139.346 137.897 139.274 137.982C139.201 138.067 139.147 138.168 139.115 138.278C139.083 138.388 139.075 138.504 139.091 138.617V140H138.626V138.51C138.626 137.982 138.386 137.724 137.97 137.724C137.861 137.719 137.752 137.74 137.652 137.785C137.551 137.829 137.461 137.897 137.389 137.982C137.316 138.067 137.261 138.168 137.23 138.278C137.198 138.388 137.19 138.504 137.206 138.617V140H136.747V137.313H137.185V137.69C137.29 137.552 137.424 137.441 137.577 137.368C137.73 137.295 137.898 137.261 138.066 137.268C138.243 137.256 138.419 137.295 138.576 137.383C138.733 137.47 138.863 137.602 138.952 137.763C139.063 137.602 139.211 137.472 139.381 137.386C139.552 137.3 139.74 137.259 139.929 137.268C140.077 137.255 140.226 137.278 140.364 137.334C140.502 137.391 140.626 137.479 140.727 137.593C140.828 137.708 140.902 137.844 140.946 137.994C140.989 138.143 140.999 138.3 140.976 138.454Z" fill="#263238"/>
<path d="M144.463 138.657C144.472 138.838 144.445 139.019 144.384 139.188C144.323 139.358 144.228 139.512 144.107 139.641C143.986 139.77 143.841 139.871 143.68 139.938C143.52 140.005 143.348 140.035 143.176 140.028C143.001 140.036 142.826 139.999 142.668 139.92C142.51 139.84 142.372 139.721 142.268 139.573V140H141.825V136.246H142.29V137.718C142.395 137.578 142.53 137.466 142.684 137.392C142.838 137.318 143.007 137.283 143.176 137.291C143.348 137.283 143.52 137.313 143.68 137.379C143.84 137.445 143.986 137.545 144.107 137.674C144.228 137.802 144.323 137.956 144.384 138.125C144.445 138.295 144.472 138.476 144.463 138.657ZM143.998 138.657C143.991 138.48 143.935 138.309 143.836 138.165C143.737 138.022 143.6 137.912 143.443 137.849C143.285 137.787 143.113 137.774 142.949 137.814C142.785 137.853 142.635 137.942 142.519 138.07C142.402 138.198 142.324 138.359 142.294 138.533C142.264 138.708 142.283 138.888 142.349 139.051C142.415 139.214 142.525 139.353 142.665 139.451C142.806 139.548 142.97 139.601 143.139 139.601C143.256 139.604 143.372 139.582 143.48 139.535C143.589 139.488 143.686 139.418 143.767 139.329C143.848 139.24 143.911 139.135 143.951 139.019C143.99 138.903 144.007 138.779 143.998 138.657Z" fill="#263238"/>
<path d="M144.869 138.657C144.865 138.38 144.939 138.109 145.081 137.877C145.224 137.645 145.429 137.463 145.67 137.354C145.911 137.244 146.178 137.213 146.436 137.264C146.694 137.315 146.932 137.445 147.12 137.639C147.307 137.832 147.436 138.08 147.49 138.35C147.543 138.621 147.519 138.902 147.42 139.158C147.321 139.414 147.153 139.634 146.935 139.789C146.717 139.943 146.461 140.027 146.199 140.028C146.024 140.037 145.849 140.008 145.686 139.943C145.522 139.878 145.373 139.778 145.248 139.649C145.123 139.52 145.025 139.365 144.96 139.195C144.894 139.024 144.863 138.841 144.869 138.657ZM147.053 138.657C147.046 138.479 146.989 138.308 146.89 138.164C146.791 138.021 146.654 137.911 146.496 137.849C146.338 137.786 146.166 137.774 146.002 137.814C145.837 137.854 145.688 137.943 145.571 138.072C145.455 138.2 145.377 138.362 145.348 138.537C145.318 138.712 145.338 138.892 145.405 139.055C145.471 139.218 145.582 139.356 145.724 139.453C145.865 139.55 146.03 139.602 146.199 139.601C146.315 139.603 146.431 139.58 146.539 139.533C146.646 139.486 146.743 139.416 146.824 139.327C146.904 139.238 146.966 139.133 147.006 139.017C147.045 138.902 147.061 138.779 147.053 138.657Z" fill="#263238"/>
<path d="M151.608 139.556V140H149.189V139.651L150.588 138.252C150.946 137.887 151.01 137.662 151.01 137.443C151.01 137.077 150.764 136.853 150.294 136.853C150.132 136.844 149.971 136.875 149.822 136.942C149.673 137.009 149.541 137.111 149.435 137.24L149.109 136.943C149.26 136.757 149.449 136.61 149.662 136.513C149.874 136.416 150.105 136.37 150.337 136.381C151.042 136.381 151.49 136.763 151.49 137.37C151.488 137.587 151.439 137.802 151.346 137.996C151.254 138.191 151.12 138.361 150.956 138.494L149.926 139.533L151.608 139.556Z" fill="#263238"/>
<path opacity="0.6" d="M197.377 149.087H125.864V170.747H197.377V149.087Z" fill="white"/>
<path opacity="0.2" d="M154.486 155.23H129.89C129.739 155.23 129.593 155.167 129.486 155.054C129.379 154.941 129.319 154.788 129.319 154.629C129.319 154.469 129.379 154.316 129.486 154.203C129.593 154.091 129.739 154.027 129.89 154.027H154.486C154.561 154.027 154.636 154.042 154.706 154.072C154.775 154.102 154.839 154.146 154.892 154.202C154.945 154.258 154.987 154.324 155.016 154.398C155.044 154.471 155.058 154.55 155.058 154.629C155.058 154.708 155.044 154.786 155.016 154.86C154.987 154.933 154.945 155 154.892 155.056C154.839 155.112 154.775 155.156 154.706 155.186C154.636 155.216 154.561 155.231 154.486 155.23Z" fill="black"/>
<path opacity="0.2" d="M193.351 158.574H129.89C129.739 158.574 129.593 158.511 129.486 158.398C129.379 158.285 129.319 158.132 129.319 157.973C129.319 157.813 129.379 157.66 129.486 157.547C129.593 157.435 129.739 157.371 129.89 157.371H193.351C193.502 157.371 193.648 157.435 193.755 157.547C193.862 157.66 193.922 157.813 193.922 157.973C193.922 158.132 193.862 158.285 193.755 158.398C193.648 158.511 193.502 158.574 193.351 158.574Z" fill="black"/>
<path opacity="0.2" d="M193.351 161.912H129.89C129.815 161.913 129.74 161.898 129.671 161.868C129.601 161.838 129.538 161.794 129.485 161.738C129.431 161.682 129.389 161.615 129.361 161.542C129.332 161.469 129.318 161.39 129.319 161.311C129.319 161.151 129.379 160.998 129.486 160.886C129.593 160.773 129.739 160.709 129.89 160.709H193.351C193.502 160.709 193.648 160.773 193.755 160.886C193.862 160.998 193.922 161.151 193.922 161.311C193.923 161.39 193.909 161.469 193.88 161.542C193.852 161.615 193.81 161.682 193.756 161.738C193.703 161.794 193.64 161.838 193.57 161.868C193.501 161.898 193.426 161.913 193.351 161.912Z" fill="black"/>
<path opacity="0.2" d="M193.351 165.256H129.89C129.739 165.256 129.593 165.193 129.486 165.08C129.379 164.967 129.319 164.814 129.319 164.655C129.319 164.495 129.379 164.342 129.486 164.23C129.593 164.117 129.739 164.053 129.89 164.053H193.351C193.502 164.053 193.648 164.117 193.755 164.23C193.862 164.342 193.922 164.495 193.922 164.655C193.922 164.814 193.862 164.967 193.755 165.08C193.648 165.193 193.502 165.256 193.351 165.256Z" fill="black"/>
<path opacity="0.2" d="M175.761 174.012H172.028C171.892 174.012 171.782 174.128 171.782 174.271V178.199C171.782 178.342 171.892 178.458 172.028 178.458H175.761C175.896 178.458 176.006 178.342 176.006 178.199V174.271C176.006 174.128 175.896 174.012 175.761 174.012Z" fill="black"/>
<path d="M174.159 175.13H173.625V177.339H174.159V175.13Z" fill="white"/>
<path d="M174.944 175.951H172.845V176.513H174.944V175.951Z" fill="white"/>
<path opacity="0.2" d="M151.213 174.012H147.48C147.344 174.012 147.234 174.128 147.234 174.271V178.199C147.234 178.342 147.344 178.458 147.48 178.458H151.213C151.348 178.458 151.458 178.342 151.458 178.199V174.271C151.458 174.128 151.348 174.012 151.213 174.012Z" fill="black"/>
<path d="M149.616 175.13H149.082V177.339H149.616V175.13Z" fill="white"/>
<path d="M150.396 175.951H148.297V176.513H150.396V175.951Z" fill="white"/>
<path d="M193.26 183.819H129.976C128.94 183.819 128.101 184.702 128.101 185.792V192.524C128.101 193.614 128.94 194.497 129.976 194.497H193.26C194.295 194.497 195.134 193.614 195.134 192.524V185.792C195.134 184.702 194.295 183.819 193.26 183.819Z" fill="#FC6A43"/>
<path d="M150.294 189.186C150.276 188.707 150.395 188.233 150.634 187.825C150.874 187.418 151.224 187.094 151.639 186.897C152.055 186.701 152.516 186.639 152.965 186.72C153.414 186.801 153.83 187.022 154.159 187.354C154.488 187.685 154.715 188.113 154.812 188.582C154.908 189.05 154.869 189.538 154.7 189.984C154.531 190.429 154.239 190.811 153.862 191.08C153.486 191.35 153.041 191.494 152.585 191.496C152.289 191.511 151.992 191.463 151.714 191.353C151.436 191.244 151.182 191.076 150.967 190.86C150.753 190.644 150.583 190.384 150.467 190.096C150.351 189.808 150.293 189.499 150.294 189.186ZM154.246 189.186C154.25 188.837 154.155 188.494 153.974 188.202C153.792 187.909 153.532 187.68 153.227 187.544C152.921 187.408 152.584 187.37 152.258 187.436C151.932 187.503 151.632 187.67 151.397 187.916C151.161 188.162 151.001 188.476 150.936 188.819C150.871 189.162 150.904 189.517 151.031 189.839C151.159 190.162 151.375 190.437 151.651 190.63C151.928 190.823 152.253 190.925 152.585 190.923C152.805 190.931 153.023 190.892 153.228 190.808C153.432 190.724 153.618 190.597 153.774 190.434C153.929 190.271 154.052 190.076 154.133 189.862C154.214 189.647 154.253 189.417 154.246 189.186Z" fill="white"/>
<path d="M158.667 191.445L157.738 190.057H157.471H156.403V191.434H155.789V186.938H157.466C158.582 186.938 159.255 187.528 159.255 188.512C159.27 188.826 159.185 189.137 159.014 189.395C158.843 189.654 158.595 189.845 158.31 189.939L159.33 191.456L158.667 191.445ZM158.667 188.5C158.667 187.854 158.256 187.489 157.471 187.489H156.403V189.523H157.471C158.235 189.523 158.646 189.147 158.646 188.5H158.667Z" fill="white"/>
<path d="M160.253 186.927H162.064C163.441 186.927 164.381 187.843 164.381 189.175C164.381 190.507 163.441 191.423 162.064 191.423H160.253V186.927ZM162.026 190.861C162.451 190.861 162.859 190.683 163.159 190.367C163.46 190.051 163.628 189.622 163.628 189.175C163.628 188.728 163.46 188.299 163.159 187.983C162.859 187.666 162.451 187.489 162.026 187.489H160.868V190.861H162.026Z" fill="white"/>
<path d="M168.434 190.883V191.445H165.321V186.949H168.349V187.511H165.93V188.899H168.066V189.461H165.93V190.923L168.434 190.883Z" fill="white"/>
<path d="M172.3 191.445L171.371 190.057H171.104H170.036V191.434H169.422V186.938H171.099C172.215 186.938 172.888 187.528 172.888 188.512C172.907 188.828 172.824 189.142 172.654 189.404C172.484 189.666 172.235 189.86 171.948 189.956L172.968 191.473L172.3 191.445ZM172.3 188.5C172.3 187.854 171.889 187.489 171.104 187.489H170.063V189.523H171.104C171.868 189.523 172.279 189.147 172.279 188.5H172.3Z" fill="white"/>
<path opacity="0.2" d="M193.308 101.874C193.735 104.656 193.131 107.505 191.621 109.832C188.79 114.08 183.712 115.502 180.3 119.071C177.208 122.308 175.606 127.467 171.302 129.277C169.337 130.103 167.126 129.996 165.054 129.563C160.552 128.625 156.51 126.248 152.441 124.151C147.005 121.341 140.693 120.133 135.497 116.986C133.105 115.542 130.996 113.361 130.157 110.596C128.352 104.717 132.25 98.9626 136.352 95.422C139.422 92.7693 142.973 90.5494 145.531 87.2954C147.886 84.2944 148.858 80.2761 151.571 77.5616C153.765 75.3642 156.911 74.3919 159.933 74.4706C168.285 74.6785 171.985 80.1693 176.818 86.2726C180.828 91.3306 187.936 92.241 191.637 97.5632C192.511 98.8398 193.084 100.317 193.308 101.874Z" fill="white"/>
<path d="M166.752 90.6563L165.15 113.957C165.15 113.957 171.024 118.177 177.582 116.385L183.952 95.3658C183.952 95.3658 179.792 88.6331 166.752 90.6563Z" fill="#263238"/>
<path d="M166.555 89.8357L166.384 92.3253C166.384 92.3253 171.403 97.2878 183.739 96.9281L184.881 94.1631C182.419 91.8782 179.448 90.2838 176.245 89.5274C173.042 88.7711 169.709 88.8771 166.555 89.8357Z" fill="#263238"/>
<path opacity="0.8" d="M166.555 89.8357L166.384 92.3253C166.384 92.3253 171.403 97.2878 183.739 96.9281L184.881 94.1631C182.419 91.8782 179.448 90.2838 176.245 89.5274C173.042 88.7711 169.709 88.8771 166.555 89.8357Z" fill="white"/>
<path opacity="0.2" d="M184.412 94.2024C176.936 95.2533 170.528 92.286 168.077 90.9203C167.382 90.5381 167.009 90.2852 167.009 90.2852C167.222 90.2178 167.436 90.1616 167.649 90.1054C168.7 89.8233 169.772 89.6353 170.853 89.5434C174.198 89.2805 177.548 89.9655 180.556 91.5273C181.952 92.2278 183.25 93.128 184.412 94.2024Z" fill="black"/>
<path d="M187.717 85.2666C187.445 87.8855 187.343 91.8251 184.412 94.2024C181.709 94.568 178.968 94.4731 176.295 93.9214C174.762 93.6127 173.255 93.1767 171.788 92.6175C170.515 92.1476 169.275 91.5842 168.077 90.9315C167.915 90.6706 167.77 90.3983 167.644 90.1166C167.356 89.4816 167.158 88.6948 167.847 88.5487C169.022 88.3014 168.776 88.1609 168.701 87.5539C168.627 86.947 168.851 86.3175 169.091 86.9189C169.331 87.5202 169.134 88.8746 169.395 89.0376C169.657 89.2006 170.939 88.4025 170.843 89.5996C170.78 90.0722 170.791 90.5525 170.875 91.0215C170.875 91.0777 170.907 91.1282 170.928 91.1844C170.925 91.1906 170.924 91.1973 170.924 91.2041C170.924 91.2109 170.925 91.2177 170.928 91.2238C171.028 91.4721 171.201 91.6807 171.42 91.82C171.64 91.9593 171.895 92.022 172.151 91.9993C173.561 92.0836 174.517 91.162 175.953 90.7348C177.389 90.3077 179.12 90.4089 179.392 92.005C179.664 93.601 180.871 93.0222 180.599 91.915L180.535 91.5835C180.359 90.4932 180.487 89.1331 181.042 89.8469C181.597 90.5606 180.807 90.8416 181.277 91.3362C181.747 91.8307 182.425 90.999 182.66 89.5378C182.895 88.0766 183.974 84.8788 182.66 83.1141C181.346 81.3494 181.779 80.9841 182.66 81.1977C183.541 81.4113 183.066 83.0017 183.936 83.4457C184.807 83.8897 185.084 81.563 184.614 80.4278C184.145 79.2925 183.546 77.3761 184.881 77.6178C186.216 77.8594 185.949 79.7477 185.949 80.9898C185.949 82.2318 186.286 83.0467 186.686 82.5858C186.755 82.5015 186.852 82.4489 186.957 82.4394C187.062 82.43 187.166 82.4644 187.247 82.5353C187.578 82.7769 187.883 83.5974 187.717 85.2666Z" fill="#FC6A43"/>
<path d="M174.752 83.6144L176.637 81.9115L178.826 83.6144V85.8848L176.941 86.6267L174.752 85.6319V83.6144Z" fill="#FC6A43"/>
<path opacity="0.8" d="M174.752 83.6144L176.637 81.9115L178.826 83.6144V85.8848L176.941 86.6267L174.752 85.6319V83.6144Z" fill="white"/>
<path opacity="0.5" d="M176.637 81.9115V84.7046L178.826 85.8848V83.6144L176.637 81.9115Z" fill="white"/>
<path opacity="0.2" d="M187.226 82.5184C186.926 82.7745 186.685 83.0987 186.522 83.4666C186.358 83.8345 186.276 84.2366 186.281 84.6428C186.174 86.5986 185.576 86.5255 184.412 85.6994C183.247 84.8732 183.653 86.6829 183.936 90.2741C184.219 93.8652 181.127 94.4216 179.76 93.9271C178.393 93.4325 179.509 93.011 178.65 92.4546C177.902 91.9657 178.014 93.646 176.295 93.9214C175.984 93.9557 175.671 93.9557 175.36 93.9214C173.684 93.736 172.525 93.3257 171.788 92.612C171.383 92.2233 171.085 91.726 170.928 91.1732C171.028 91.4216 171.201 91.6302 171.42 91.7695C171.64 91.9087 171.895 91.9715 172.151 91.9488C173.561 92.0331 174.517 91.1114 175.953 90.6843C177.389 90.2572 179.12 90.3583 179.392 91.9544C179.664 93.5505 180.871 92.9717 180.599 91.8645L180.535 91.5329C180.359 90.4426 180.487 89.0826 181.042 89.7963C181.597 90.5101 180.807 90.7911 181.277 91.2856C181.747 91.7802 182.425 90.9484 182.66 89.4872C182.895 88.026 183.974 84.8283 182.66 83.0636C181.346 81.2989 181.779 80.9336 182.66 81.1472C183.541 81.3607 183.066 82.9512 183.936 83.3952C184.807 83.8391 185.084 81.5125 184.614 80.3772C184.145 79.242 183.546 77.3256 184.881 77.5672C186.216 77.8089 185.949 79.6972 185.949 80.9392C185.949 82.1813 186.286 82.9961 186.686 82.5353C186.758 82.4623 186.853 82.4201 186.953 82.4169C187.053 82.4138 187.15 82.45 187.226 82.5184Z" fill="black"/>
<path d="M173.689 92.5446L172.001 92.1568L171.98 90.1617L173.176 89.2119L174.362 89.9987L174.752 91.696L173.689 92.5446Z" fill="#FC6A43"/>
<path opacity="0.8" d="M173.689 92.5446L172.001 92.1568L171.98 90.1617L173.176 89.2119L174.362 89.9987L174.752 91.696L173.689 92.5446Z" fill="white"/>
<path opacity="0.5" d="M172.001 92.1568L173.47 90.9878L173.176 89.2119L171.98 90.1617L172.001 92.1568Z" fill="white"/>
<path opacity="0.8" d="M176.791 100.092C181.848 100.092 181.448 110.208 175.382 110.174C169.315 110.141 171.078 100.092 176.791 100.092Z" fill="white"/>
<path opacity="0.2" d="M176.658 100.885C180.93 100.885 180.583 109.399 175.467 109.382C170.351 109.365 171.841 100.885 176.658 100.885Z" fill="black"/>
<path d="M135.796 117.115C135.796 117.115 134.381 119.509 134.381 120.144C134.381 120.779 135.449 123.921 136.149 124.612C136.848 125.303 145.349 127.422 155.709 125.787C166.069 124.151 168.952 119.082 169.46 117.857C169.967 116.632 169.791 111.95 168.675 111.742C167.559 111.535 137.772 115.463 135.796 117.115Z" fill="#263238"/>
<path opacity="0.5" d="M169.46 117.863C168.952 119.082 166.069 124.14 155.709 125.781C145.349 127.422 136.859 125.304 136.149 124.618C135.438 123.932 134.381 120.785 134.381 120.122C134.438 119.771 134.55 119.433 134.712 119.122C135.139 118.211 135.78 117.093 135.78 117.093C137.751 115.446 167.548 111.506 168.659 111.72C169.006 111.782 169.262 112.282 169.433 112.968C169.812 114.519 169.812 117.02 169.46 117.863Z" fill="white"/>
<path opacity="0.2" d="M169.449 112.99C168.429 114.749 164.963 118.902 155.303 120.369C144.426 122.021 135.513 119.891 134.776 119.2L134.712 119.144C135.139 118.234 135.78 117.115 135.78 117.115C137.751 115.469 167.548 111.529 168.659 111.742C169.022 111.804 169.278 112.299 169.449 112.99Z" fill="black"/>
<path d="M135.444 117.037C134.333 116.952 133.772 117.857 134.429 118.441C135.086 119.026 136.303 118.548 136.352 119.723C136.4 120.897 136.453 122.381 137.11 121.583C137.767 120.785 137.163 119.897 138.931 120.201C139.999 120.392 141.414 121.111 142.455 120.386C142.642 120.257 142.797 120.083 142.989 119.965C143.201 119.858 143.42 119.772 143.646 119.706C143.943 119.582 144.227 119.427 144.495 119.245C144.842 119.02 145.243 118.717 145.227 118.284C145.199 118.092 145.11 117.915 144.974 117.783C144.838 117.651 144.663 117.572 144.479 117.559C144.116 117.544 143.753 117.604 143.411 117.733C143.055 117.835 142.699 117.919 142.343 117.986C141.676 118.104 141.077 117.79 140.426 117.672C139.662 117.531 138.893 117.419 138.124 117.323C137.201 117.205 136.325 117.104 135.444 117.037Z" fill="#FC6A43"/>
<path d="M145.654 118.498C145.654 118.498 148.452 120.83 149.52 120.785C150.588 120.74 150.914 120.628 151.33 121.263C151.747 121.898 153.632 123.23 153.904 121.903C154.176 120.577 155.18 119.88 155.843 120.094C156.505 120.307 157.76 120.656 158.267 119.672C158.345 119.486 158.46 119.319 158.606 119.185C158.752 119.051 158.924 118.953 159.111 118.897C159.447 118.762 159.789 118.621 160.125 118.503C160.566 118.444 161.001 118.34 161.423 118.194C161.866 117.93 162.032 117.357 162.331 116.924C162.646 116.471 163.111 116.158 163.634 116.047C164.079 115.999 164.526 115.977 164.974 115.98C165.198 115.978 165.418 115.92 165.615 115.811C165.813 115.701 165.983 115.543 166.111 115.351C166.304 114.991 166.25 114.536 166.41 114.153C166.52 113.895 166.718 113.689 166.966 113.577C167.213 113.466 167.492 113.457 167.745 113.552C167.885 113.631 168.037 113.681 168.194 113.698C168.557 113.698 168.894 113.136 169.177 113.361C169.46 113.586 169.326 113.974 169.673 114.137C169.711 113.518 169.673 112.895 169.7 112.276C169.721 112.06 169.682 111.841 169.588 111.647C169.368 111.187 169.026 110.804 168.603 110.546C168.18 110.287 167.695 110.164 167.206 110.191C166.047 110.146 164.803 110.135 163.837 110.815C162.87 111.495 162.416 112.681 161.583 113.502C161.109 113.939 160.581 114.306 160.013 114.592C158.597 115.388 157.134 116.09 155.634 116.694C154.273 117.256 152.564 117.256 151.111 117.475C149.301 117.79 147.469 118.121 145.654 118.498Z" fill="#FC6A43"/>
<path d="M168.813 112.642C168.632 113.4 167.932 113.946 167.35 114.384L166.816 114.789C166.489 115.059 166.13 115.284 165.748 115.457C165.346 115.585 164.933 115.668 164.515 115.705C162.83 115.957 161.225 116.626 159.832 117.655C159.483 117.971 159.073 118.203 158.63 118.335C158.231 118.361 157.831 118.348 157.434 118.295C157.235 118.268 157.033 118.301 156.85 118.39C156.668 118.478 156.513 118.619 156.403 118.796C156.366 118.919 156.308 119.035 156.232 119.138C156.14 119.208 156.031 119.247 155.917 119.251C154.589 119.427 153.251 119.519 151.912 119.526C150.551 119.526 149.184 119.453 147.827 119.374L145.157 119.211C144.719 119.167 144.277 119.167 143.838 119.211C143.416 119.268 143 119.408 142.583 119.498C142.065 119.58 141.543 119.624 141.019 119.627L139.417 119.667C138.028 119.706 136.832 118.975 135.551 118.453C135.388 118.4 135.24 118.308 135.118 118.183C134.803 117.801 135.118 117.177 134.942 116.705C134.889 116.6 134.847 116.489 134.819 116.373C134.828 116.208 134.872 116.047 134.947 115.901C134.968 115.851 134.984 115.798 134.995 115.744C134.987 115.511 134.926 115.284 134.819 115.081C134.743 114.853 134.702 114.614 134.696 114.373C134.685 114.238 134.685 114.103 134.696 113.968C134.711 113.867 134.74 113.768 134.782 113.676C135.038 113.114 136.229 113.159 136.741 113.024C140.399 112.035 144.143 111.338 147.859 110.652C152.217 109.835 156.587 109.086 160.969 108.404C162.571 108.168 164.173 107.938 165.775 107.758C166.334 107.645 166.904 107.594 167.473 107.606C167.763 107.633 168.036 107.766 168.242 107.983C168.299 108.04 168.344 108.109 168.376 108.185C168.433 108.423 168.412 108.675 168.317 108.899C168.261 109.271 168.261 109.65 168.317 110.023C168.312 110.219 168.356 110.412 168.445 110.585C168.523 110.672 168.591 110.768 168.648 110.871C168.749 111.119 168.648 111.433 168.648 111.731C168.648 112.029 168.915 112.22 168.813 112.642Z" fill="#263238"/>
<path opacity="0.2" d="M167.97 109.995C167.793 110.765 167.094 111.304 166.512 111.743L165.978 112.142C165.652 112.414 165.293 112.639 164.91 112.81C164.511 112.942 164.099 113.027 163.682 113.063C161.993 113.312 160.385 113.982 158.993 115.019C158.644 115.333 158.234 115.563 157.792 115.693C157.393 115.72 156.992 115.705 156.596 115.648C156.396 115.621 156.194 115.654 156.012 115.743C155.83 115.831 155.675 115.972 155.565 116.149C155.529 116.273 155.471 116.389 155.394 116.491C155.302 116.563 155.193 116.604 155.079 116.609C153.752 116.784 152.417 116.878 151.079 116.89C149.712 116.89 148.351 116.812 146.989 116.727L144.319 116.564C143.88 116.522 143.439 116.522 143 116.564C142.578 116.626 142.167 116.761 141.745 116.845C141.228 116.934 140.704 116.977 140.18 116.975L138.578 117.02C137.275 117.059 136.138 116.413 134.947 115.896C134.968 115.845 134.984 115.792 134.995 115.738C134.987 115.506 134.926 115.279 134.819 115.075C134.743 114.847 134.702 114.608 134.696 114.367C134.685 114.232 134.685 114.097 134.696 113.962C134.711 113.861 134.74 113.763 134.782 113.67C135.038 113.108 136.229 113.153 136.741 113.018C140.399 112.029 144.143 111.332 147.859 110.647C152.217 109.83 156.587 109.081 160.969 108.399C162.571 108.163 164.173 107.932 165.775 107.752C166.334 107.639 166.904 107.588 167.473 107.601C167.486 107.71 167.52 107.815 167.575 107.91C167.653 107.998 167.721 108.096 167.777 108.202C167.884 108.444 167.777 108.792 167.777 109.056C167.9 109.444 168.071 109.59 167.97 109.995Z" fill="black"/>
<path d="M133.927 112.99C133.714 113.597 138.119 119.734 138.119 119.734C138.119 119.734 144.436 114.468 148.735 113.721C153.034 112.973 167.233 113.777 167.233 113.777C167.233 113.777 168.061 108.556 167.927 107.308C167.794 106.061 136.304 106.263 133.927 112.99Z" fill="#FC6A43"/>
<path opacity="0.7" d="M133.927 112.99C133.714 113.597 138.119 119.734 138.119 119.734C138.119 119.734 144.436 114.468 148.735 113.721C153.034 112.973 167.233 113.777 167.233 113.777C167.233 113.777 168.061 108.556 167.927 107.308C167.794 106.061 136.304 106.263 133.927 112.99Z" fill="white"/>
<path d="M137.996 112.591L139.379 115.688C139.379 115.688 142.316 114.564 143.326 115.688C143.903 116.257 144.264 117.028 144.34 117.857C144.34 117.857 145.088 114.401 146.38 115.227C147.26 115.822 148.067 116.528 148.783 117.329C148.783 117.329 150.604 114.187 152.222 115.227L153.824 116.261C153.824 116.261 155.138 113.125 157.162 112.99C159.185 112.855 160.018 113.181 160.189 112.591C160.36 112.001 164.942 108.657 167.067 108.792L169.203 108.921C169.203 108.921 169.609 105.943 170.805 105.943C170.805 105.943 168.381 104.465 168.429 102.627C168.429 101.924 166.864 103.672 165.759 102.627C164.654 101.581 132.763 108.297 132.763 108.297C132.763 108.297 133.003 108.028 131.487 108.792C129.97 109.556 132.096 109.354 131.487 111.006C130.878 112.658 133.714 110.911 134.52 112.096C135.326 113.282 137.996 112.591 137.996 112.591Z" fill="#FC6A43"/>
<path opacity="0.5" d="M137.996 112.591L139.379 115.688C139.379 115.688 142.316 114.564 143.326 115.688C143.903 116.257 144.264 117.028 144.34 117.857C144.34 117.857 145.088 114.401 146.38 115.227C147.26 115.822 148.067 116.528 148.783 117.329C148.783 117.329 150.604 114.187 152.222 115.227L153.824 116.261C153.824 116.261 155.138 113.125 157.162 112.99C159.185 112.855 160.018 113.181 160.189 112.591C160.36 112.001 164.942 108.657 167.067 108.792L169.203 108.921C169.203 108.921 169.609 105.943 170.805 105.943C170.805 105.943 168.381 104.465 168.429 102.627C168.429 101.924 166.864 103.672 165.759 102.627C164.654 101.581 132.763 108.297 132.763 108.297C132.763 108.297 133.003 108.028 131.487 108.792C129.97 109.556 132.096 109.354 131.487 111.006C130.878 112.658 133.714 110.911 134.52 112.096C135.326 113.282 137.996 112.591 137.996 112.591Z" fill="white"/>
<path d="M146.022 112.288C143.731 116.014 133.356 116.935 132.555 113.766C132.379 113.098 132.336 112.4 132.427 111.714C132.568 110.634 133.091 109.649 133.89 108.955C138.226 106.583 145.2 107.831 146.247 110.456C146.363 110.755 146.404 111.082 146.364 111.403C146.325 111.724 146.207 112.029 146.022 112.288Z" fill="#FC6A43"/>
<path opacity="0.2" d="M146.247 110.455C146.186 110.613 146.111 110.763 146.022 110.905C143.731 114.631 133.356 115.553 132.555 112.389C132.499 112.167 132.456 111.942 132.427 111.714C132.568 110.634 133.091 109.649 133.89 108.955C138.226 106.583 145.2 107.859 146.247 110.455Z" fill="black"/>
<path d="M167.564 110.079C165.278 113.799 154.897 114.727 154.102 111.557C153.923 110.888 153.88 110.188 153.974 109.5C154.116 108.422 154.638 107.439 155.437 106.746C159.767 104.369 166.742 105.622 167.794 108.247C167.909 108.547 167.948 108.874 167.908 109.195C167.868 109.516 167.749 109.82 167.564 110.079Z" fill="#FC6A43"/>
<path opacity="0.2" d="M167.794 108.247C167.731 108.404 167.654 108.554 167.564 108.696C165.278 112.417 154.897 113.344 154.102 110.174C154.042 109.954 153.999 109.728 153.974 109.5C154.116 108.422 154.638 107.439 155.437 106.746C159.767 104.369 166.742 105.656 167.794 108.247Z" fill="black"/>
<path d="M149.429 92.3253C160.312 91.3699 169.721 101.357 167.628 106.521C165.535 111.686 136.069 116.075 133.297 110.158C130.526 104.24 137.98 93.3313 149.429 92.3253Z" fill="#263238"/>
<path opacity="0.5" d="M149.429 92.3253C160.312 91.3699 169.721 101.357 167.628 106.521C165.535 111.686 136.069 116.075 133.297 110.158C130.526 104.24 137.98 93.3313 149.429 92.3253Z" fill="white"/>
<path opacity="0.2" d="M148.634 98.7771C148.634 98.7771 148.126 100.092 148.634 100.092C149.141 100.092 148.634 98.7771 148.634 98.7771Z" fill="white"/>
<path opacity="0.2" d="M152.628 97.226C152.628 97.226 153.536 98.5017 153.589 97.9172C153.643 97.3327 152.628 97.226 152.628 97.226Z" fill="white"/>
<path opacity="0.2" d="M146.663 96.7427C146.663 96.7427 145.296 97.0068 145.654 97.3777C146.012 97.7487 146.663 96.7427 146.663 96.7427Z" fill="white"/>
<path opacity="0.2" d="M142.316 98.35C142.316 98.35 141.307 98.4343 141.457 98.7883C141.606 99.1424 142.316 98.35 142.316 98.35Z" fill="white"/>
<path opacity="0.2" d="M144.896 93.9776C144.896 93.9776 143.78 93.8146 143.78 94.1912C143.78 94.5677 144.896 93.9776 144.896 93.9776Z" fill="white"/>
<path opacity="0.2" d="M148.858 94.6127C148.858 94.6127 148.682 95.6243 149.087 95.5175C149.493 95.4107 148.858 94.6127 148.858 94.6127Z" fill="white"/>
<path opacity="0.2" d="M155.218 95.54C155.218 95.54 156.115 95.9727 156.115 95.54C156.115 95.1072 155.218 95.54 155.218 95.54Z" fill="white"/>
<path opacity="0.2" d="M152.078 93.3369C152.078 93.3369 152.574 92.7749 152.831 92.9098C153.087 93.0447 152.078 93.3369 152.078 93.3369Z" fill="white"/>
<path opacity="0.2" d="M147.624 93.3369C148.158 93.2302 147.875 93.9439 147.875 93.9439C147.875 93.9439 147.069 93.4437 147.624 93.3369Z" fill="white"/>
<path opacity="0.2" d="M144.34 101.048C144.34 101.048 143.678 101.475 143.779 101.795C143.881 102.115 144.34 101.048 144.34 101.048Z" fill="white"/>
<path opacity="0.2" d="M158.336 98.6029C158.336 98.6029 159.447 99.0413 159.047 99.4347C158.646 99.8281 158.336 98.6029 158.336 98.6029Z" fill="white"/>
<path opacity="0.2" d="M152.078 101.857C152.078 101.857 152.393 102.503 152.078 102.627C151.763 102.751 152.078 101.857 152.078 101.857Z" fill="white"/>
<path opacity="0.2" d="M167.628 106.521C165.529 111.686 136.069 116.075 133.297 110.152C132.999 109.495 132.818 108.787 132.763 108.061C132.821 108.238 132.891 108.411 132.971 108.578C135.743 114.496 165.204 110.113 167.302 104.942C167.552 104.302 167.649 103.608 167.585 102.919C168.028 104.072 168.044 105.358 167.628 106.521Z" fill="black"/>
<path d="M208.564 219.675C208.564 219.675 205.547 212.745 208.997 205.917C212.447 199.089 213.44 197.487 211.245 196.082C209.05 194.677 208.041 201.544 208.041 201.544C208.041 201.544 206.188 196.824 207.715 191.884C209.243 186.944 210.204 178.896 208.116 178.03C206.028 177.165 207.715 188.073 205.905 191.788C204.982 189.179 204.386 186.455 204.132 183.684C203.881 179.716 204.276 173.377 202.626 171.753C200.976 170.129 199.919 171.253 201.558 180.009C202.531 185.242 203.067 190.554 203.16 195.885C203.16 195.885 199.577 184.398 197.174 184.083C194.771 183.768 194.777 187.455 196.832 190.698C198.888 193.941 202.856 199.69 203.507 202.674C203.507 202.674 199.577 194.031 196.031 196.683C192.486 199.336 199.107 204.551 202.055 206.439C205.003 208.328 207.048 220.152 207.048 220.152L208.564 219.675Z" fill="#FC6A43"/>
<path opacity="0.2" d="M208.564 219.675C208.564 219.675 205.547 212.745 208.997 205.917C212.447 199.089 213.44 197.487 211.245 196.082C209.05 194.677 208.041 201.544 208.041 201.544C208.041 201.544 206.188 196.824 207.715 191.884C209.243 186.944 210.204 178.896 208.116 178.03C206.028 177.165 207.715 188.073 205.905 191.788C204.982 189.179 204.386 186.455 204.132 183.684C203.881 179.716 204.276 173.377 202.626 171.753C200.976 170.129 199.919 171.253 201.558 180.009C202.531 185.242 203.067 190.554 203.16 195.885C203.16 195.885 199.577 184.398 197.174 184.083C194.771 183.768 194.777 187.455 196.832 190.698C198.888 193.941 202.856 199.69 203.507 202.674C203.507 202.674 199.577 194.031 196.031 196.683C192.486 199.336 199.107 204.551 202.055 206.439C205.003 208.328 207.048 220.152 207.048 220.152L208.564 219.675Z" fill="black"/>
<path d="M206.183 222.513C206.183 222.513 209.12 215.538 205.595 208.766C202.071 201.994 201.056 200.398 203.235 198.965C205.414 197.532 206.503 204.377 206.503 204.377C206.503 204.377 208.303 199.628 206.717 194.711C205.131 189.793 204.079 181.785 206.183 180.869C208.287 179.952 206.717 190.9 208.548 194.587C209.441 191.964 210.007 189.231 210.23 186.455C210.433 182.487 209.969 176.153 211.603 174.507C213.237 172.86 214.273 173.945 212.778 182.74C211.866 187.986 211.389 193.306 211.352 198.639C211.352 198.639 214.802 187.101 217.199 186.725C219.597 186.348 219.634 190.097 217.616 193.334C215.597 196.571 211.699 202.432 211.08 205.417C211.08 205.417 214.914 196.711 218.475 199.308C222.037 201.904 215.469 207.226 212.532 209.154C209.595 211.082 207.726 222.945 207.726 222.945L206.183 222.513Z" fill="#FC6A43"/>
<path d="M219.736 217.545H195.465L197.43 235.821H217.771L219.736 217.545Z" fill="#263238"/>
<path d="M114.58 226.924H141.873C144.784 226.924 147.144 224.441 147.144 221.377V198.791C147.144 195.727 144.784 193.244 141.873 193.244H114.58C111.67 193.244 109.31 195.727 109.31 198.791V221.377C109.31 224.441 111.67 226.924 114.58 226.924Z" fill="#263238"/>
<path opacity="0.1" d="M114.58 226.924H141.873C144.784 226.924 147.144 224.441 147.144 221.377V198.791C147.144 195.727 144.784 193.244 141.873 193.244H114.58C111.67 193.244 109.31 195.727 109.31 198.791V221.377C109.31 224.441 111.67 226.924 114.58 226.924Z" fill="white"/>
<path opacity="0.2" d="M141.873 226.924C143.27 226.924 144.61 226.341 145.598 225.302C146.586 224.263 147.142 222.853 147.144 221.383V198.791C147.144 198.062 147.007 197.341 146.742 196.669C146.477 195.996 146.089 195.385 145.6 194.87C145.11 194.356 144.529 193.948 143.89 193.669C143.25 193.391 142.565 193.249 141.873 193.249C141.181 193.249 140.496 193.391 139.857 193.67C139.218 193.948 138.638 194.356 138.148 194.871C137.659 195.385 137.272 195.997 137.007 196.669C136.743 197.342 136.607 198.063 136.608 198.791V221.383C136.608 222.853 137.163 224.262 138.15 225.301C139.137 226.341 140.477 226.924 141.873 226.924Z" fill="white"/>
<path d="M109.395 204.428H53.6617L45.1711 158.265C44.953 157.081 44.9863 155.862 45.2685 154.693C45.5508 153.525 46.0751 152.436 46.8038 151.506C47.5325 150.576 48.4477 149.827 49.4837 149.313C50.5198 148.798 51.6511 148.531 52.7966 148.531H92.7024C94.5071 148.533 96.2552 149.194 97.6473 150.403C99.0394 151.612 99.9889 153.292 100.333 155.157L109.395 204.428Z" fill="#263238"/>
<g opacity="0.1">
<path opacity="0.1" d="M109.395 204.428H53.6617L45.1711 158.265C44.953 157.081 44.9863 155.862 45.2685 154.693C45.5508 153.525 46.0751 152.436 46.8038 151.506C47.5325 150.576 48.4477 149.827 49.4837 149.313C50.5198 148.798 51.6511 148.531 52.7966 148.531H92.7024C94.5071 148.533 96.2552 149.194 97.6473 150.403C99.0394 151.612 99.9889 153.292 100.333 155.157L109.395 204.428Z" fill="white"/>
</g>
<path opacity="0.2" d="M109.401 204.338H69.4894L60.4114 155.112C60.0668 153.252 59.1156 151.577 57.7224 150.376C56.3291 149.176 54.5812 148.525 52.7806 148.537H92.7024C94.5023 148.528 96.2486 149.18 97.6412 150.38C99.0338 151.58 99.9857 153.253 100.333 155.112L109.401 204.338Z" fill="white"/>
<path d="M108.098 171.787C107.692 170.527 107.155 169.319 106.496 168.184C105.893 167.108 105.207 166.085 104.445 165.127C104.176 164.779 103.803 164.537 103.387 164.44C102.971 164.342 102.536 164.396 102.152 164.59C101.768 164.785 101.458 165.11 101.271 165.514C101.085 165.917 101.033 166.375 101.124 166.813L101.15 166.936C101.327 167.808 101.519 168.707 101.684 169.583C101.06 168.887 100.429 168.156 99.8046 167.409C98.4376 165.773 97.0492 164.037 95.7248 162.39L95.6768 162.334C95.2866 161.851 94.7916 161.475 94.2338 161.238C93.676 161 93.0718 160.907 92.4728 160.968C92.2838 160.988 92.0964 161.021 91.9121 161.069C91.4133 161.198 90.9458 161.435 90.5397 161.766C90.1469 162.08 89.8169 162.473 89.5689 162.921C89.3209 163.37 89.1598 163.866 89.0948 164.381C89.0297 164.895 89.0621 165.418 89.1901 165.92C89.318 166.421 89.5389 166.891 89.8402 167.302C90.5717 168.308 91.3193 169.269 92.083 170.202C92.8466 171.135 93.5194 171.888 94.2777 172.748C95.036 173.607 95.8797 174.467 96.7555 175.31C97.0225 175.563 97.2895 175.816 97.5671 176.069C98.2345 176.683 98.9314 177.261 99.6551 177.8C100.316 178.289 101.023 178.705 101.764 179.042C101.882 179.092 102.005 179.143 102.149 179.194C102.296 179.25 102.446 179.299 102.597 179.34C102.773 179.39 102.952 179.432 103.131 179.463L103.463 179.508C103.585 179.515 103.708 179.515 103.831 179.508C103.97 179.508 104.087 179.508 104.242 179.508C104.398 179.496 104.553 179.475 104.707 179.447C104.926 179.404 105.142 179.344 105.353 179.267C105.828 179.099 106.273 178.85 106.672 178.53C107.438 177.931 108 177.087 108.274 176.125C108.446 175.52 108.524 174.89 108.503 174.259C108.483 173.419 108.346 172.586 108.098 171.787Z" fill="#CE7A63"/>
<path opacity="0.1" d="M108.098 171.787C107.692 170.527 107.155 169.319 106.496 168.184C105.893 167.108 105.207 166.085 104.445 165.127C104.176 164.779 103.803 164.537 103.387 164.44C102.971 164.342 102.536 164.396 102.152 164.59C101.768 164.785 101.458 165.11 101.271 165.514C101.085 165.917 101.033 166.375 101.124 166.813L101.15 166.936C101.327 167.808 101.519 168.707 101.684 169.583C101.06 168.887 100.429 168.156 99.8046 167.409C98.4376 165.773 97.0492 164.037 95.7248 162.39L95.6768 162.334C95.2866 161.851 94.7916 161.475 94.2338 161.238C93.676 161 93.0718 160.907 92.4728 160.968C92.2838 160.988 92.0964 161.021 91.9121 161.069C91.4133 161.198 90.9458 161.435 90.5397 161.766C90.1469 162.08 89.8169 162.473 89.5689 162.921C89.3209 163.37 89.1598 163.866 89.0948 164.381C89.0297 164.895 89.0621 165.418 89.1901 165.92C89.318 166.421 89.5389 166.891 89.8402 167.302C90.3742 168.055 90.9455 168.785 91.5116 169.499L92.0776 170.196C92.7896 171.058 93.5212 171.906 94.2724 172.742C95.0627 173.607 95.8744 174.462 96.7501 175.305L97.4924 176.001C97.5132 176.025 97.5365 176.046 97.5618 176.063C98.2291 176.678 98.926 177.255 99.6497 177.794C100.31 178.283 101.017 178.7 101.759 179.036C101.877 179.087 101.999 179.137 102.144 179.188C102.291 179.245 102.44 179.294 102.592 179.334C102.768 179.385 102.946 179.426 103.126 179.458L103.457 179.503C103.58 179.51 103.703 179.51 103.826 179.503C103.964 179.503 104.082 179.503 104.237 179.503C104.393 179.49 104.548 179.47 104.701 179.441C104.921 179.399 105.137 179.339 105.348 179.261C105.823 179.093 106.268 178.845 106.667 178.525C107.432 177.925 107.994 177.082 108.269 176.12C108.441 175.515 108.519 174.885 108.498 174.254C108.479 173.415 108.344 172.584 108.098 171.787Z" fill="black"/>
<path d="M100.643 166.352L100.333 164.705C100.221 164.106 100.259 163.486 100.445 162.907L100.798 161.817C100.91 161.468 101.135 161.171 101.434 160.978C101.732 160.785 102.085 160.708 102.432 160.76L103.5 160.923C103.697 160.954 103.886 161.025 104.057 161.134C104.227 161.242 104.376 161.384 104.494 161.553C104.612 161.721 104.697 161.913 104.745 162.116C104.792 162.32 104.801 162.531 104.771 162.738L104.627 163.699C104.627 163.699 104.531 166.431 103.222 168.111L102.656 167.982C102.223 167.895 101.815 167.702 101.465 167.419C101.116 167.136 100.834 166.77 100.643 166.352Z" fill="#CE7A63"/>
<path opacity="0.1" d="M100.643 166.352L100.333 164.705C100.221 164.106 100.259 163.486 100.445 162.907L100.798 161.817C100.91 161.468 101.135 161.171 101.434 160.978C101.732 160.785 102.085 160.708 102.432 160.76L103.5 160.923C103.697 160.954 103.886 161.025 104.057 161.134C104.227 161.242 104.376 161.384 104.494 161.553C104.612 161.721 104.697 161.913 104.745 162.116C104.792 162.32 104.801 162.531 104.771 162.738L104.627 163.699C104.627 163.699 104.531 166.431 103.222 168.111L102.656 167.982C102.223 167.895 101.815 167.702 101.465 167.419C101.116 167.136 100.834 166.77 100.643 166.352Z" fill="black"/>
<path opacity="0.2" d="M97.5351 176.002L96.7928 175.305C95.9224 174.462 95.1054 173.619 94.3151 172.742C93.5248 171.865 92.8252 171.056 92.1203 170.196L91.5543 169.499C91.3407 166.925 91.3674 164.694 91.7412 163.553C91.7786 163.441 91.8213 163.345 91.8587 163.255C92.0121 163.311 92.1619 163.376 92.3072 163.452C93.749 164.177 97.722 166.526 97.5351 176.002Z" fill="black"/>
<path d="M94.8811 163.407C95.1695 165.284 98.806 168.965 95.8583 172.208C96.8035 173.579 99.3721 183.712 98.4322 185.831C96.8302 187.714 86.492 189.681 77.7397 190.366C76.645 186.736 77.0669 178.632 72.325 167.184C71.2249 164.526 73.4837 160.62 78.5407 158.608C80.7951 157.811 83.2075 157.645 85.5415 158.124C88.0246 158.636 94.3578 160.052 94.8811 163.407Z" fill="#FC6A43"/>
<path opacity="0.7" d="M98.4322 185.831C96.8302 187.714 86.4973 189.681 77.7397 190.366C77.2057 188.54 77.0188 185.567 76.3887 181.61C75.7839 177.747 74.8253 173.955 73.5265 170.286C73.1687 169.274 72.7682 168.235 72.325 167.156C71.2249 164.509 73.4837 160.597 78.5407 158.585C80.7952 157.788 83.2081 157.624 85.5415 158.107C88.0246 158.613 94.3578 160.024 94.8811 163.385C95.1748 165.256 98.806 168.943 95.8583 172.186C96.8035 173.579 99.3721 183.712 98.4322 185.831Z" fill="white"/>
<path d="M92.3446 140.433C92.3446 140.433 94.4806 137.774 88.9003 135.611C83.32 133.447 76.3513 136.173 75.7532 144.13C75.1552 152.088 71.6201 153.432 74.7867 156.14C77.9533 158.849 83.0477 155.865 87.8483 156.466C92.649 157.068 93.3859 159.349 94.1015 154.921C94.817 150.492 94.3044 144.872 94.3044 144.872C94.3044 144.872 95.2389 140.697 92.3446 140.433Z" fill="#263238"/>
<path d="M80.5806 149.329C80.5806 152.235 80.1321 156.86 78.5407 158.962C78.5407 158.962 81.0292 160.839 86.9405 164.722C89.0765 160.743 86.6575 159.945 86.6575 159.945C84.7405 158.9 85.2905 157.478 85.7764 155.449L80.5806 149.329Z" fill="#CE7A63"/>
<path opacity="0.2" d="M85.691 155.421L81.168 151.526C80.9852 152.111 81.008 152.745 81.2321 153.314C81.8782 155.157 83.7419 156.849 85.424 157.877C85.3978 157.049 85.4878 156.221 85.691 155.421Z" fill="black"/>
<path opacity="0.2" d="M73.1954 169.415C74.1114 171.869 74.8714 174.385 75.4702 176.946C76.864 173.652 78.0655 167.954 77.462 165.582L73.1954 169.415Z" fill="black"/>
<path d="M80.1 143.799C79.7956 148.503 79.566 150.487 81.4724 153.179C84.3346 157.231 89.7868 156.579 91.3941 152.055C92.8466 147.986 93.1029 140.978 89.0712 138.567C85.0395 136.156 80.383 139.095 80.1 143.799Z" fill="#CE7A63"/>
<path d="M86.4065 147.542C86.3638 147.885 86.5027 148.188 86.7163 148.216C86.9299 148.244 87.1381 147.991 87.1808 147.654C87.2236 147.317 87.0847 147.008 86.8658 146.974C86.6468 146.94 86.4439 147.199 86.4065 147.542Z" fill="#263238"/>
<path d="M90.4276 148.149C90.3848 148.497 90.5237 148.801 90.7373 148.829C90.9509 148.857 91.1591 148.598 91.2018 148.267C91.2446 147.935 91.1057 147.621 90.8921 147.592C90.6785 147.564 90.4703 147.806 90.4276 148.149Z" fill="#263238"/>
<path d="M90.78 147.587L91.597 147.452C91.597 147.452 91.1271 148.048 90.78 147.587Z" fill="#263238"/>
<path d="M89.4183 148.109C89.6132 148.936 89.915 149.73 90.3154 150.47C90.133 150.573 89.9316 150.632 89.725 150.645C89.5184 150.658 89.3117 150.623 89.1193 150.543L89.4183 148.109Z" fill="#BA4D3C"/>
<path d="M78.5621 147.772C78.609 148.198 78.7413 148.609 78.9503 148.977C79.1592 149.345 79.4401 149.662 79.7743 149.908C80.6393 150.498 81.435 149.559 81.4991 148.357C81.5525 147.278 81.168 145.67 80.1534 145.547C79.1388 145.423 78.4125 146.648 78.5621 147.772Z" fill="#CE7A63"/>
<path d="M85.8565 145.333C85.9104 145.333 85.962 145.311 86.0007 145.271C86.1642 145.082 86.3678 144.935 86.5951 144.843C86.8223 144.751 87.0669 144.717 87.309 144.743C87.3339 144.748 87.3595 144.748 87.3842 144.742C87.409 144.737 87.4325 144.726 87.4533 144.711C87.4742 144.696 87.492 144.676 87.5057 144.654C87.5194 144.631 87.5288 144.606 87.5333 144.58C87.5387 144.554 87.5389 144.527 87.5339 144.5C87.529 144.474 87.5189 144.449 87.5044 144.427C87.4899 144.405 87.4712 144.386 87.4495 144.372C87.4279 144.358 87.4037 144.348 87.3784 144.344C87.073 144.302 86.7624 144.338 86.4732 144.449C86.1839 144.561 85.9247 144.745 85.7177 144.985C85.6812 145.024 85.6607 145.076 85.6607 145.131C85.6607 145.186 85.6812 145.238 85.7177 145.277C85.7558 145.313 85.8052 145.333 85.8565 145.333Z" fill="#263238"/>
<path d="M92.1203 146.491C92.1689 146.497 92.2179 146.485 92.2592 146.457C92.2806 146.442 92.2988 146.422 92.3129 146.4C92.3269 146.377 92.3365 146.351 92.341 146.325C92.3455 146.298 92.3448 146.27 92.339 146.244C92.3332 146.217 92.3224 146.193 92.3072 146.171C92.1375 145.906 91.9107 145.686 91.6453 145.531C91.3799 145.376 91.0834 145.289 90.78 145.277C90.7285 145.28 90.6802 145.304 90.6453 145.344C90.6104 145.384 90.5916 145.436 90.5931 145.491C90.5959 145.545 90.6186 145.596 90.6565 145.632C90.6944 145.669 90.7445 145.689 90.796 145.687C91.0396 145.696 91.2777 145.766 91.4904 145.891C91.7032 146.016 91.8844 146.193 92.0189 146.407C92.0428 146.446 92.0785 146.476 92.1203 146.491Z" fill="#263238"/>
<path d="M86.7697 146.974L87.5867 146.845C87.5867 146.845 87.1061 147.435 86.7697 146.974Z" fill="#263238"/>
<path d="M90.6144 138.898C89.5144 143.147 81.8515 146.575 79.6888 146.941C77.5261 147.306 77.3179 143.096 79.5286 140.416C81.7394 137.735 86.508 135.442 90.6144 138.898Z" fill="#263238"/>
<path d="M90.0057 139.168C89.6865 140.944 88.8057 142.555 87.5066 143.737C87.5066 143.737 90.2353 143.001 91.6077 141.011L90.0057 139.168Z" fill="#263238"/>
<path d="M88.11 152.229C87.6756 152.562 87.2651 152.928 86.8818 153.325L86.6522 153.145C85.6269 152.33 85.4026 151.594 85.4721 151.026C85.5098 150.75 85.6106 150.488 85.7658 150.262C85.8476 150.128 85.9484 150.009 86.0648 149.908C86.4849 150.707 87.0641 151.401 87.7629 151.942C87.9925 152.128 88.11 152.229 88.11 152.229Z" fill="#263238"/>
<path d="M87.7843 151.942L87.4158 152.257C86.4493 151.487 85.8672 150.807 85.8138 150.262C85.8956 150.128 85.9965 150.009 86.1129 149.908C86.5252 150.704 87.0952 151.398 87.7843 151.942Z" fill="white"/>
<path d="M86.6735 153.145C85.6483 152.33 85.424 151.594 85.4934 151.026C85.8741 151.34 86.201 151.72 86.4599 152.15C86.6308 152.449 86.7057 152.798 86.6735 153.145Z" fill="#A24E3F"/>
<path d="M97.0652 165.751C97.0526 165.8 97.0501 165.851 97.0579 165.901C97.0657 165.951 97.0837 165.998 97.1105 166.04C97.1373 166.083 97.1724 166.118 97.2135 166.145C97.2545 166.171 97.3004 166.188 97.3482 166.195L101.086 166.757C101.191 166.77 101.296 166.745 101.384 166.684C101.473 166.623 101.537 166.531 101.567 166.425L103.43 158.776C103.445 158.724 103.449 158.67 103.443 158.616C103.436 158.562 103.42 158.51 103.394 158.463C103.368 158.416 103.333 158.376 103.292 158.344C103.25 158.311 103.203 158.288 103.153 158.276L99.4148 157.714C99.3046 157.714 99.1973 157.751 99.1094 157.821C99.0216 157.891 98.9582 157.99 98.9288 158.102L97.0652 165.751Z" fill="#263238"/>
<path opacity="0.5" d="M99.3507 158.113L97.4657 165.835C97.4487 165.878 97.4417 165.925 97.4454 165.972C97.449 166.019 97.4631 166.064 97.4865 166.104C97.51 166.144 97.5421 166.178 97.5802 166.203C97.6184 166.227 97.6615 166.242 97.706 166.245L100.878 166.712C101.092 166.745 101.497 166.678 101.551 166.464L103.446 158.714C103.5 158.501 103.158 158.27 102.945 158.237L99.7726 157.77C99.6738 157.759 99.5747 157.788 99.496 157.852C99.4174 157.916 99.3653 158.01 99.3507 158.113Z" fill="white"/>
<path d="M93.984 166.723L95.2603 163.834L99.2599 166.92C99.2599 166.92 97.5031 169.449 95.2763 170.151L94.8331 169.645C94.4857 169.261 94.2282 168.797 94.0808 168.29C93.9334 167.782 93.9003 167.246 93.984 166.723Z" fill="#CE7A63"/>
<path d="M98.4749 162.941L99.7298 164.199C99.8663 164.336 99.9759 164.499 100.052 164.679C100.129 164.86 100.171 165.055 100.176 165.253C100.181 165.451 100.149 165.647 100.081 165.832C100.014 166.017 99.9127 166.186 99.7832 166.329L99.2492 166.92L95.2496 163.834L96.654 162.794C96.9265 162.593 97.2572 162.497 97.5894 162.524C97.9216 162.55 98.2346 162.698 98.4749 162.941Z" fill="#CE7A63"/>
<path opacity="0.2" d="M81.9103 182.408C80.2442 183.667 78.0601 182.74 76.3887 181.61C75.7839 177.747 74.8254 173.955 73.5265 170.286C73.6051 170.072 73.7293 169.88 73.8896 169.724C75.5663 168.257 85.0075 180.054 81.9103 182.408Z" fill="black"/>
<path d="M78.6208 165.402C78.6689 165.638 78.7436 166.015 78.8131 166.33L79.0427 167.33C79.2029 167.999 79.3631 168.667 79.55 169.319C79.8965 170.595 80.3173 171.847 80.8102 173.068C81.2242 174.132 81.7623 175.139 82.4122 176.063C82.653 176.386 82.927 176.681 83.2293 176.94C83.425 177.112 83.6496 177.243 83.8914 177.328C83.8914 177.328 84.0356 177.356 83.8113 177.328H83.6191H83.4749C83.2987 177.367 83.2666 177.39 83.2506 177.412C83.2346 177.435 83.4001 177.373 83.5817 177.277C84.0571 176.997 84.5059 176.67 84.922 176.299C85.9477 175.418 86.9281 174.48 87.859 173.489C89.8188 171.444 91.7519 169.201 93.6957 167.026L93.7277 166.993C94.035 166.648 94.4496 166.431 94.8963 166.381C95.3429 166.331 95.7918 166.451 96.1612 166.72C96.5306 166.989 96.7959 167.388 96.9089 167.846C97.0219 168.303 96.975 168.788 96.7768 169.213C95.4548 172.04 93.9228 174.754 92.1951 177.328C91.2919 178.679 90.3017 179.963 89.2314 181.172C88.6119 181.865 87.9365 182.501 87.2129 183.072C86.7257 183.45 86.1967 183.765 85.6376 184.01C85.2324 184.191 84.8072 184.317 84.372 184.387C84.2545 184.387 84.0943 184.426 83.9555 184.437C83.8007 184.446 83.6457 184.446 83.4909 184.437C83.2854 184.429 83.0805 184.411 82.8768 184.381C81.6878 184.225 80.5424 183.812 79.5126 183.167C78.6051 182.594 77.7798 181.889 77.0615 181.071C75.8446 179.673 74.833 178.091 74.0605 176.378C73.3455 174.835 72.7508 173.234 72.2823 171.59C72.0526 170.786 71.839 169.988 71.6628 169.173C71.572 168.769 71.4866 168.364 71.4118 167.948C71.3371 167.532 71.273 167.156 71.1982 166.639C71.0233 165.608 71.2446 164.546 71.8134 163.687C72.3823 162.828 73.252 162.242 74.2313 162.058C75.2107 161.874 76.2194 162.107 77.0356 162.706C77.8518 163.304 78.4085 164.22 78.5835 165.251L78.6208 165.402Z" fill="#CE7A63"/>
<path d="M169.214 210.188C166.181 212.621 162.534 212.369 160.889 210.008C159.981 208.704 156.254 212.014 156.254 212.014C159.992 215.19 159.709 216.398 160.285 217.578C160.862 218.758 161.818 219.77 162.587 219.084C163.505 218.258 163.772 217.685 164.931 216.679C166.288 215.504 167.751 214.223 170.079 212.043C171.013 211.183 170.565 209.12 169.214 210.188Z" fill="#263238"/>
<path d="M162.048 210.087L158.31 214.178C152.665 211.846 147.971 209.682 144.068 207.704C125.912 198.493 124.62 193.182 122.088 192.895C121.576 192.919 121.075 193.061 120.62 193.311C114.677 195.969 95.7088 210.407 85.9099 207.361C75.0323 203.989 77.729 190.372 77.729 190.372C106.907 180.177 125.154 178.677 132.64 183.628C140.127 188.579 162.048 210.087 162.048 210.087Z" fill="#FC6A43"/>
<path opacity="0.2" d="M162.048 210.087L158.31 214.178C152.665 211.846 147.971 209.682 144.068 207.704C125.912 198.493 124.62 193.182 122.088 192.895C121.576 192.919 121.075 193.061 120.62 193.311C114.677 195.969 95.7088 210.407 85.9099 207.361C75.0323 203.989 77.729 190.372 77.729 190.372C106.907 180.177 125.154 178.677 132.64 183.628C140.127 188.579 162.048 210.087 162.048 210.087Z" fill="black"/>
<path opacity="0.2" d="M144.063 207.704C125.907 198.493 124.614 193.182 122.083 192.895C121.571 192.919 121.069 193.061 120.615 193.311L120.679 193.064C120.679 193.064 128.523 190.878 133.815 192.794C137.644 194.182 141.969 202.966 144.063 207.704Z" fill="black"/>
<path d="M128.828 225.598L130.413 235.821H127.017L123.893 226.07L128.828 225.598Z" fill="#263238"/>
<path d="M86.0541 225.598L84.4681 235.821H87.8697L90.9883 226.07L86.0541 225.598Z" fill="#263238"/>
<path opacity="0.1" d="M128.828 225.598L130.413 235.821H127.017L123.893 226.07L128.828 225.598Z" fill="white"/>
<path opacity="0.1" d="M86.0541 225.598L84.4681 235.821H87.8697L90.9883 226.07L86.0541 225.598Z" fill="white"/>
<path d="M104.392 225.598L105.978 235.821H102.581L99.4575 226.07L104.392 225.598Z" fill="#263238"/>
<path d="M57.9924 225.598L56.4064 235.821H59.8027L62.9266 226.07L57.9924 225.598Z" fill="#263238"/>
<path d="M131.711 204.338H55.285C53.1233 204.338 51.3708 206.182 51.3708 208.457V224.064C51.3708 226.339 53.1233 228.183 55.285 228.183H131.711C133.873 228.183 135.625 226.339 135.625 224.064V208.457C135.625 206.182 133.873 204.338 131.711 204.338Z" fill="#263238"/>
<path opacity="0.1" d="M131.711 204.338H55.285C53.1233 204.338 51.3708 206.182 51.3708 208.457V224.064C51.3708 226.339 53.1233 228.183 55.285 228.183H131.711C133.873 228.183 135.625 226.339 135.625 224.064V208.457C135.625 206.182 133.873 204.338 131.711 204.338Z" fill="white"/>
<path opacity="0.2" d="M131.711 204.338H84.7084C82.5467 204.338 80.7942 206.182 80.7942 208.457V224.064C80.7942 226.339 82.5467 228.183 84.7084 228.183H131.711C133.873 228.183 135.625 226.339 135.625 224.064V208.457C135.625 206.182 133.873 204.338 131.711 204.338Z" fill="white"/>
<path d="M47.4673 226.924H74.76C77.6709 226.924 80.0306 224.441 80.0306 221.377V198.791C80.0306 195.727 77.6709 193.244 74.76 193.244H47.4673C44.5564 193.244 42.1967 195.727 42.1967 198.791V221.377C42.1967 224.441 44.5564 226.924 47.4673 226.924Z" fill="#263238"/>
<path opacity="0.1" d="M47.4673 226.924H74.76C77.6709 226.924 80.0306 224.441 80.0306 221.377V198.791C80.0306 195.727 77.6709 193.244 74.76 193.244H47.4673C44.5564 193.244 42.1967 195.727 42.1967 198.791V221.377C42.1967 224.441 44.5564 226.924 47.4673 226.924Z" fill="white"/>
<path opacity="0.2" d="M74.76 226.924C76.1569 226.924 77.4967 226.341 78.485 225.302C79.4733 224.263 80.0292 222.853 80.0306 221.383V198.791C80.0306 198.062 79.8942 197.341 79.6293 196.669C79.3644 195.996 78.976 195.385 78.4866 194.87C77.9971 194.356 77.416 193.948 76.7766 193.669C76.1372 193.391 75.4519 193.249 74.76 193.249C74.0681 193.249 73.3829 193.391 72.7435 193.669C72.104 193.948 71.523 194.356 71.0335 194.87C70.544 195.385 70.1557 195.996 69.8907 196.669C69.6258 197.341 69.4894 198.062 69.4894 198.791V221.383C69.4909 222.853 70.0468 224.263 71.035 225.302C72.0233 226.341 73.3631 226.924 74.76 226.924Z" fill="white"/>
<path d="M139.598 232.387C139.643 230.243 139.41 228.103 138.904 226.025C138.904 226.025 142.866 223.816 143.064 225.401C143.422 228.279 145.974 232.483 149.136 233.05C150.94 233.376 149.755 234.826 148.457 235.18C146.391 235.742 146.209 235.405 144.399 234.832C142.856 234.337 142.263 234.146 140.987 234.5C139.94 234.792 139.652 233.708 139.598 232.387Z" fill="#263238"/>
<path d="M143.646 225.598L138.84 227.981C138.84 227.981 127.033 209.542 125.357 204.675C125.357 204.675 117.298 204.843 106.421 204.489C104.445 204.427 103.276 204.489 101.145 204.338C101.145 204.338 111.419 194.592 120.679 193.064C121.154 192.985 121.619 192.929 122.083 192.895C122.083 192.895 130.317 192.215 132.646 194.311C134.974 196.408 143.646 225.598 143.646 225.598Z" fill="#FC6A43"/>
<path opacity="0.2" d="M143.646 225.598L138.84 227.981C138.84 227.981 127.033 209.542 125.357 204.675C125.357 204.675 117.298 204.843 106.421 204.489C104.445 204.427 103.276 204.489 101.145 204.338C101.145 204.338 111.419 194.592 120.679 193.064C121.154 192.985 121.619 192.929 122.083 192.895C122.083 192.895 130.317 192.215 132.646 194.311C134.974 196.408 143.646 225.598 143.646 225.598Z" fill="black"/>
<path opacity="0.2" d="M120.684 193.064C117.074 197.622 111.141 201.64 106.426 204.489C104.45 204.427 103.281 204.489 101.15 204.338C101.145 204.338 111.419 194.592 120.684 193.064Z" fill="black"/>
</svg>
